<svg width="500.250048828125px" height="122.021240234375px" xmlns="http://www.w3.org/2000/svg" viewBox="-0.12502441406249432 13.9893798828125 500.250048828125 122.021240234375" style="background: rgba(0, 0, 0, 0);" preserveAspectRatio="xMidYMid"><defs><filter id="editing-vr"><feFlood flood-color="rgba(0%,0%,0%,0)" flood-opacity="0.7" result="c1"></feFlood><feFlood flood-color="#7289da" flood-opacity="0.7" result="c3"></feFlood><feComposite operator="in" in="c1" in2="SourceAlpha" result="text-c1"></feComposite><feComposite operator="in" in="c3" in2="SourceAlpha" result="text-c3"></feComposite><feOffset in="text-c1" dx="3" dy="-1" result="text1"></feOffset><feOffset in="text-c3" dx="-3" dy="1" result="text3"></feOffset><feBlend in="SourceGraphic" in2="text1" mode="multiply" result="text4"></feBlend><feBlend in="text4" in2="text3" mode="multiply"></feBlend></filter></defs><g filter="url(#editing-vr)"><g transform="translate(75.14687073230743, 104.78218841552734)"><path d="M26.05-29.57L26.05-29.57L26.05-29.57Q27.01-31.49 27.01-33.28L27.01-33.28L27.01-33.28Q27.01-35.07 26.82-36.06L26.82-36.06L26.82-36.06Q26.62-37.06 26.18-37.82L26.18-37.82L26.18-37.82Q25.22-39.49 23.30-39.49L23.30-39.49L23.30-39.49Q20.93-39.49 19.01-37.76L19.01-37.76L19.01-37.76Q16.96-35.97 16.96-33.15L16.96-33.15L16.96-33.15Q16.96-31.36 18.21-29.98L18.21-29.98L18.21-29.98Q19.46-28.61 21.38-27.33L21.38-27.33L21.38-27.33Q23.30-26.05 25.47-24.77L25.47-24.77L25.47-24.77Q27.65-23.49 29.57-21.95L29.57-21.95L29.57-21.95Q33.98-18.43 33.98-13.70L33.98-13.70L33.98-13.70Q33.98-10.50 32.29-7.78L32.29-7.78L32.29-7.78Q30.59-5.06 27.78-3.07L27.78-3.07L27.78-3.07Q21.63 1.28 13.50 1.28L13.50 1.28L13.50 1.28Q6.91 1.28 3.52-0.86L3.52-0.86L3.52-0.86Q0.13-3.01 0.13-6.27L0.13-6.27L0.13-6.27Q0.13-12.10 4.67-13.57L4.67-13.57L4.67-13.57Q5.95-14.02 7.90-14.02L7.90-14.02L7.90-14.02Q9.86-14.02 12.10-13.18L12.10-13.18L12.10-13.18Q11.07-10.56 11.07-8.19L11.07-8.19L11.07-8.19Q11.07-3.07 14.72-3.07L14.72-3.07L14.72-3.07Q17.09-3.07 19.04-4.80L19.04-4.80L19.04-4.80Q20.99-6.53 20.99-8.48L20.99-8.48L20.99-8.48Q20.99-10.43 19.74-11.84L19.74-11.84L19.74-11.84Q18.50-13.25 16.64-14.37L16.64-14.37L16.64-14.37Q14.78-15.49 12.64-16.58L12.64-16.58L12.64-16.58Q10.50-17.66 8.64-19.20L8.64-19.20L8.64-19.20Q4.29-22.72 4.29-28.35L4.29-28.35L4.29-28.35Q4.29-32 6.08-34.85L6.08-34.85L6.08-34.85Q7.87-37.70 10.75-39.62L10.75-39.62L10.75-39.62Q16.51-43.52 23.58-43.52L23.58-43.52L23.58-43.52Q30.66-43.52 34.08-41.41L34.08-41.41L34.08-41.41Q37.50-39.30 37.50-35.71L37.50-35.71L37.50-35.71Q37.50-32.58 35.07-30.59L35.07-30.59L35.07-30.59Q32.96-28.93 30.40-28.93L30.40-28.93L30.40-28.93Q27.84-28.93 26.05-29.57ZM68.67-4.38L68.67-4.38L68.67-4.38Q65.98-1.66 62.30-0.19L62.30-0.19L62.30-0.19Q58.62 1.28 54.98 1.28L54.98 1.28L54.98 1.28Q51.33 1.28 50.05 0.64L50.05 0.64L48.06 11.52L35.07 12.80L43.90-32.64L54.34-33.73L53.50-29.31L53.50-29.31Q56.19-33.86 61.76-33.86L61.76-33.86L61.76-33.86Q68.03-33.86 71.36-29.82L71.36-29.82L71.36-29.82Q74.30-26.18 74.30-20.61L74.30-20.61L74.30-20.61Q74.30-15.04 72.83-11.07L72.83-11.07L72.83-11.07Q71.36-7.10 68.67-4.38ZM54.21-22.34L50.82-3.58L50.82-3.58Q52.16-2.43 53.82-2.43L53.82-2.43L53.82-2.43Q55.49-2.43 56.45-3.07L56.45-3.07L56.45-3.07Q57.41-3.71 58.11-4.99L58.11-4.99L58.11-4.99Q60.03-8.45 61.57-18.94L61.57-18.94L61.57-18.94Q62.02-22.02 62.02-25.02L62.02-25.02L62.02-25.02Q62.02-28.03 61.34-28.99L61.34-28.99L61.34-28.99Q60.67-29.95 59.39-29.95L59.39-29.95L59.39-29.95Q55.49-29.95 54.21-22.34L54.21-22.34ZM93.50-3.52L93.50-3.52L93.50-3.52Q91.52 1.28 85.18 1.28L85.18 1.28L85.18 1.28Q81.92 1.28 79.87-0.96L79.87-0.96L79.87-0.96Q78.14-2.94 78.14-4.93L78.14-4.93L78.14-4.93Q78.14-10.11 80.51-20.22L80.51-20.22L82.88-32.64L95.87-33.92L91.97-13.70L91.97-13.70Q90.88-8.96 90.88-7.30L90.88-7.30L90.88-7.30Q90.88-3.65 93.50-3.52ZM84.03-41.54L84.03-41.54L84.03-41.54Q84.03-44.03 86.11-45.38L86.11-45.38L86.11-45.38Q88.19-46.72 91.20-46.72L91.20-46.72L91.20-46.72Q94.21-46.72 96.03-45.38L96.03-45.38L96.03-45.38Q97.86-44.03 97.86-41.54L97.86-41.54L97.86-41.54Q97.86-39.04 95.84-37.76L95.84-37.76L95.84-37.76Q93.82-36.48 90.82-36.48L90.82-36.48L90.82-36.48Q87.81-36.48 85.92-37.76L85.92-37.76L85.92-37.76Q84.03-39.04 84.03-41.54ZM130.37-26.62L130.37-26.62L130.37-26.62Q130.37-23.94 128.13-22.27L128.13-22.27L128.13-22.27Q125.89-20.61 122.24-20.61L122.24-20.61L122.24-20.61Q120.70-20.61 119.81-21.06L119.81-21.06L119.81-21.06Q120.51-22.72 120.74-24.80L120.74-24.80L120.74-24.80Q120.96-26.88 120.96-27.46L120.96-27.46L120.96-27.46Q120.96-30.14 119.10-30.14L119.10-30.14L119.10-30.14Q117.82-30.14 116.38-28.54L116.38-28.54L116.38-28.54Q114.94-26.94 113.73-24.45L113.73-24.45L113.73-24.45Q111.04-18.69 111.04-12.86L111.04-12.86L111.04-12.86Q111.04-9.66 112.26-8.22L112.26-8.22L112.26-8.22Q113.47-6.78 116.16-6.78L116.16-6.78L116.16-6.78Q119.87-6.78 122.82-9.86L122.82-9.86L122.82-9.86Q123.65-10.82 124.10-11.90L124.10-11.90L124.10-11.90Q126.53-10.62 126.53-7.10L126.53-7.10L126.53-7.10Q126.53-3.52 122.56-1.15L122.56-1.15L122.56-1.15Q118.46 1.28 111.94 1.28L111.94 1.28L111.94 1.28Q98.94 1.28 98.94-12.48L98.94-12.48L98.94-12.48Q98.94-22.53 104.64-28.29L104.64-28.29L104.64-28.29Q110.14-33.92 120.26-33.92L120.26-33.92L120.26-33.92Q130.37-33.92 130.37-26.62ZM152.45-7.23L152.45-7.23L152.45-7.23Q149.12-3.78 143.04-3.78L143.04-3.78L143.04-3.78Q135.42-3.78 133.82-9.34L133.82-9.34L133.82-9.34Q133.31-11.01 133.31-12.86L133.31-12.86L133.31-12.86Q133.31-14.72 133.70-16.64L133.70-16.64L136.70-32.64L149.70-33.92L146.18-15.30L146.18-15.30Q146.05-14.46 145.86-13.57L145.86-13.57L145.86-13.57Q145.66-12.67 145.66-11.74L145.66-11.74L145.66-11.74Q145.66-10.82 145.98-10.21L145.98-10.21L145.98-10.21Q146.30-9.60 146.75-9.22L146.75-9.22L146.75-9.22Q147.52-8.70 148.90-8.70L148.90-8.70L148.90-8.70Q150.27-8.70 151.46-10.37L151.46-10.37L151.46-10.37Q152.64-12.03 153.22-14.91L153.22-14.91L156.74-32.64L169.34-33.92L164.54-8.77L164.54-8.77Q162.18 3.52 157.31 8.38L157.31 8.38L157.31 8.38Q154.82 10.88 151.58 11.87L151.58 11.87L151.58 11.87Q148.35 12.86 144.19 12.86L144.19 12.86L144.19 12.86Q137.47 12.86 133.63 10.75L133.63 10.75L133.63 10.75Q129.79 8.64 129.79 5.12L129.79 5.12L129.79 5.12Q129.79 2.50 131.78 0.99L131.78 0.99L131.78 0.99Q133.76-0.51 136.83-0.51L136.83-0.51L136.83-0.51Q139.52-0.51 141.57 0.64L141.57 0.64L141.57 0.64Q142.78 1.34 143.36 2.24L143.36 2.24L143.36 2.24Q141.89 3.52 141.89 5.63L141.89 5.63L141.89 5.63Q141.89 8.45 144.45 8.45L144.45 8.45L144.45 8.45Q148.67 8.45 151.10-1.28L151.10-1.28L151.10-1.28Q151.81-4.16 152.45-7.23ZM205.06-13.25L205.06-13.25L205.06-13.25Q206.72-12.03 206.72-9.44L206.72-9.44L206.72-9.44Q206.72-6.85 205.60-5.02L205.60-5.02L205.60-5.02Q204.48-3.20 202.30-1.79L202.30-1.79L202.30-1.79Q197.63 1.22 189.47 1.22L189.47 1.22L189.47 1.22Q181.31 1.22 176.86-3.04L176.86-3.04L176.86-3.04Q172.42-7.30 172.42-14.85L172.42-14.85L172.42-14.85Q172.42-25.54 177.98-33.66L177.98-33.66L177.98-33.66Q182.21-39.68 189.76-42.24L189.76-42.24L189.76-42.24Q193.66-43.52 197.50-43.52L197.50-43.52L197.50-43.52Q201.34-43.52 203.71-43.01L203.71-43.01L203.71-43.01Q206.08-42.50 207.87-41.47L207.87-41.47L207.87-41.47Q211.78-39.23 211.78-35.65L211.78-35.65L211.78-35.65Q211.78-32.38 208.70-29.95L208.70-29.95L208.70-29.95Q205.89-27.78 203.58-27.78L203.58-27.78L203.58-27.78Q201.28-27.78 200.32-28.10L200.32-28.10L200.32-28.10Q200.58-30.40 200.58-31.90L200.58-31.90L200.58-31.90Q200.58-33.41 200.51-34.50L200.51-34.50L200.51-34.50Q200.45-35.58 200.13-36.61L200.13-36.61L200.13-36.61Q199.49-38.98 197.54-38.98L197.54-38.98L197.54-38.98Q195.58-38.98 193.63-37.15L193.63-37.15L193.63-37.15Q191.68-35.33 190.02-32.26L190.02-32.26L190.02-32.26Q186.24-25.28 186.24-17.02L186.24-17.02L186.24-17.02Q186.24-13.06 188.48-10.78L188.48-10.78L188.48-10.78Q190.72-8.51 195.52-8.51L195.52-8.51L195.52-8.51Q199.10-8.51 202.50-10.88L202.50-10.88L202.50-10.88Q203.97-11.90 205.06-13.25ZM227.33-3.52L227.33-3.52L227.33-3.52Q225.34 1.28 219.01 1.28L219.01 1.28L219.01 1.28Q215.81 1.28 213.76-0.96L213.76-0.96L213.76-0.96Q212.10-2.82 212.10-4.93L212.10-4.93L212.10-4.93Q212.10-9.73 214.34-20.22L214.34-20.22L219.01-44.80L232.00-46.08L225.79-13.70L225.79-13.70Q224.70-8.96 224.70-7.30L224.70-7.30L224.70-7.30Q224.70-3.65 227.33-3.52ZM248.13-3.52L248.13-3.52L248.13-3.52Q246.14 1.28 239.81 1.28L239.81 1.28L239.81 1.28Q236.54 1.28 234.50-0.96L234.50-0.96L234.50-0.96Q232.77-2.94 232.77-4.93L232.77-4.93L232.77-4.93Q232.77-10.11 235.14-20.22L235.14-20.22L237.50-32.64L250.50-33.92L246.59-13.70L246.59-13.70Q245.50-8.96 245.50-7.30L245.50-7.30L245.50-7.30Q245.50-3.65 248.13-3.52ZM238.66-41.54L238.66-41.54L238.66-41.54Q238.66-44.03 240.74-45.38L240.74-45.38L240.74-45.38Q242.82-46.72 245.82-46.72L245.82-46.72L245.82-46.72Q248.83-46.72 250.66-45.38L250.66-45.38L250.66-45.38Q252.48-44.03 252.48-41.54L252.48-41.54L252.48-41.54Q252.48-39.04 250.46-37.76L250.46-37.76L250.46-37.76Q248.45-36.48 245.44-36.48L245.44-36.48L245.44-36.48Q242.43-36.48 240.54-37.76L240.54-37.76L240.54-37.76Q238.66-39.04 238.66-41.54ZM279.49-10.82L279.49-10.82L279.49-10.82Q281.09-9.73 281.09-7.33L281.09-7.33L281.09-7.33Q281.09-4.93 279.87-3.39L279.87-3.39L279.87-3.39Q278.66-1.86 276.67-0.83L276.67-0.83L276.67-0.83Q272.58 1.28 268.16 1.28L268.16 1.28L268.16 1.28Q263.74 1.28 261.15 0.32L261.15 0.32L261.15 0.32Q258.56-0.64 256.83-2.43L256.83-2.43L256.83-2.43Q253.44-5.82 253.44-12.03L253.44-12.03L253.44-12.03Q253.44-21.70 258.69-27.58L258.69-27.58L258.69-27.58Q264.32-33.92 274.11-33.92L274.11-33.92L274.11-33.92Q280.19-33.92 283.20-31.36L283.20-31.36L283.20-31.36Q285.44-29.44 285.44-26.30L285.44-26.30L285.44-26.30Q285.44-15.04 265.98-15.04L265.98-15.04L265.98-15.04Q265.73-13.38 265.73-11.97L265.73-11.97L265.73-11.97Q265.73-9.02 267.04-7.90L267.04-7.90L267.04-7.90Q268.35-6.78 270.78-6.78L270.78-6.78L270.78-6.78Q273.22-6.78 275.81-7.90L275.81-7.90L275.81-7.90Q278.40-9.02 279.49-10.82ZM266.43-17.79L266.43-17.79L266.43-17.79Q270.98-17.79 273.60-20.61L273.60-20.61L273.60-20.61Q276.22-23.30 276.22-27.58L276.22-27.58L276.22-27.58Q276.22-29.06 275.68-29.86L275.68-29.86L275.68-29.86Q275.14-30.66 274.05-30.66L274.05-30.66L274.05-30.66Q272.96-30.66 272.03-30.24L272.03-30.24L272.03-30.24Q271.10-29.82 270.14-28.42L270.14-28.42L270.14-28.42Q267.78-25.22 266.43-17.79ZM314.69 1.28L314.69 1.28L314.69 1.28Q306.94 1.28 306.94-4.74L306.94-4.74L306.94-4.74Q307.01-6.40 307.52-9.22L307.52-9.22L308.67-15.10L308.67-15.10Q310.40-23.42 310.40-25.28L310.40-25.28L310.40-25.28Q310.40-28.99 308.22-28.99L308.22-28.99L308.22-28.99Q304.58-28.99 302.66-19.46L302.66-19.46L298.88 0L286.02 1.28L292.67-32.70L303.17-33.92L302.14-27.65L302.14-27.65Q305.15-33.92 314.37-33.92L314.37-33.92L314.37-33.92Q318.85-33.92 320.74-32.03L320.74-32.03L320.74-32.03Q322.62-30.14 322.62-25.92L322.62-25.92L322.62-25.92Q322.62-21.95 320.58-12.67L320.58-12.67L320.58-12.67Q319.62-8.51 319.62-6.94L319.62-6.94L319.62-6.94Q319.62-5.38 320.48-4.48L320.48-4.48L320.48-4.48Q321.34-3.58 322.62-3.46L322.62-3.46L322.62-3.46Q321.98-1.28 319.78 0L319.78 0L319.78 0Q317.57 1.28 314.69 1.28ZM328.77-6.40L328.77-6.40L328.77-6.40Q328.77-8.13 329.66-12.48L329.66-12.48L333.06-29.76L329.28-29.76L329.54-31.68L329.54-31.68Q337.22-33.98 344.64-39.62L344.64-39.62L347.71-39.62L346.18-32.64L351.17-32.64L350.59-29.76L345.66-29.76L342.40-12.48L342.40-12.48Q341.57-8.51 341.57-7.17L341.57-7.17L341.57-7.17Q341.57-4.10 344.26-3.46L344.26-3.46L344.26-3.46Q343.62-1.28 341.31 0L341.31 0L341.31 0Q339.01 1.28 335.74 1.28L335.74 1.28L335.74 1.28Q332.48 1.28 330.62-0.77L330.62-0.77L330.62-0.77Q328.77-2.82 328.77-6.40Z" fill="#444"></path></g></g><style>text {
  font-size: 64px;
  font-family: Arial Black;
  dominant-baseline: central;
  text-anchor: middle;
}</style></svg>