<?xml version="1.0" standalone="yes"?>
<svg xmlns="http://www.w3.org/2000/svg" width="256" height="256">
<path style="fill:#99aab5; stroke:none;" d="M0 0L0 126C10.178 126.473 10 132.368 10 141C18.2668 141.923 16.366 147.61 21.4282 151.93C25.8339 155.689 31.1711 162.331 36.1698 164.958C39.2684 166.586 42.805 164.668 45.9421 166.218C51.032 168.734 51.7759 173.498 58 175C58 171.894 61.3533 173 64 173C68.4242 173 76.4322 171.154 78 176C85.2534 172.01 97.8044 170.501 104 177C104.574 175.191 104.465 174.931 104 173C109.894 171.597 116.213 173.197 121.957 171.682C125.495 170.749 126.848 167.108 130.104 165.742C132.926 164.559 136.134 165.394 138.91 163.988C145.998 160.397 152.527 151.848 157.754 146.025C159.782 143.765 162.554 141.623 163.976 138.91C165.57 135.872 164.447 132.203 166.179 129.209C168.022 126.023 171.696 124.807 172.682 120.985C174.107 115.459 172.073 110.263 175 105C169.856 97.2069 170.713 85.3435 176 78C174.852 77.8087 173.597 78.5916 173 77C172.53 75.746 173 73.3544 173 72C173 67.5266 171.807 60.6543 174 57L175 58C173.498 51.7759 168.734 51.0321 166.218 45.9421C164.668 42.805 166.586 39.2684 164.958 36.1698C162.331 31.1711 155.689 25.8339 151.93 21.4282C147.61 16.366 141.923 18.2668 141 10C132.648 10 125.663 10.0858 125 0L0 0z"/>
<path style="fill:#8599c8; stroke:none;" d="M125 0C125.09 3.03313 125.245 6.34631 127.769 8.48611C133.241 13.1264 141.344 9.40012 144 4C138.419 5.03549 133.862 5.67459 131 0L125 0z"/>
<path style="fill:#7289da; stroke:none;" d="M131 0C133.537 8.35648 148.061 4 155 4C160.601 4 168.862 2.50233 173.96 5.17902C177.282 6.92326 178.739 10.9536 182.184 12.3966C184.653 13.4305 187.483 12.6532 189.985 13.6034C195.106 15.5487 202.181 23.7104 203 29C206.694 29 211.548 28.2088 214.907 30.0278C217.546 31.4572 219.143 34.301 221.32 36.2901C223.272 38.0737 225.412 39.434 226.397 42.0185C227.744 45.5566 227 50.2703 227 54C233.604 54.215 239.139 60.8502 241.397 67.0039C242.326 69.5341 241.623 72.3162 242.434 74.8557C243.785 79.0885 249.481 78.9165 251.258 83.1049C252.623 86.323 252 90.5868 252 94L252 117L256 117C253.661 107.045 253.145 96.318 254.104 86C254.453 82.2469 255.873 78.809 255.985 75C256.716 50.0472 256 24.9647 256 0L131 0z"/>
<path style="fill:#677bc1; stroke:none;" d="M144 8C150.846 5.09895 163.92 4.1402 170.999 6.89893C174.708 8.34407 176.898 11.8896 180.375 13.4012C182.765 14.4403 185.55 13.8017 187.999 14.7423C192.988 16.6582 198.839 22.7815 202 27C202.875 22.7052 197.781 19.9789 195.139 17.0046C191.225 12.5983 187.915 14.3302 183.093 12.3966C179.566 10.9822 178.196 6.96599 174.907 5.17902C170.778 2.93614 164.539 4 160 4C155.479 4 143.89 1.73982 144 8z"/>
<path style="fill:#596aa3; stroke:none;" d="M145 9C153.211 5.52058 163.217 7 172 7C166.562 4.71796 158.864 5.96109 153 6.00076C149.451 6.02477 146.992 5.9279 145 9z"/>
<path style="fill:#87969f; stroke:none;" d="M142 7C140.686 11.4878 140.681 15.4769 145 18C142.913 13.8204 142.233 11.42 144 7L142 7z"/>
<path style="fill:#4f5d8b; stroke:none;" d="M147 7C157.241 11.2975 167.835 3.87003 176 14C176.8 10.0035 173.867 7.6497 169.995 7.13348C162.564 6.14267 154.496 7 147 7z"/>
<path style="fill:#758186; stroke:none;" d="M143 8C141.033 15.2478 145.279 17.9206 152 18C149.948 17.1258 148.253 17.0472 146 17C145.239 13.7204 144.395 11.3952 145 8L143 8z"/>
<path style="fill:#445073; stroke:none;" d="M144 14L146 14C148.492 5.78957 163.993 9 171 9C165.801 6.81837 158.603 7.97121 153 8.00076C150.676 8.01302 147.577 7.67108 145.603 9.17438C144.043 10.3636 144.139 12.2523 144 14z"/>
<path style="fill:#363f55; stroke:none;" d="M146 15C151.586 15 158.705 13.8471 163.996 15.8935C167.313 17.1765 168.762 20.1577 171.594 21.973C173.95 23.4825 177.051 22.9173 179.572 24.1481C182.78 25.7147 184.768 29.1068 188.09 30.3974C190.611 31.3773 198.454 31.7544 197.248 27.1119C196.517 24.2937 193.221 22.4865 191 21C192.324 23.6866 193.313 24.6759 196 26C194.523 28.6769 192.449 30.6066 189.169 28.9537C186.454 27.5856 184.724 24.6555 182.271 22.8935C179.437 20.8579 176.094 21.5762 173.17 19.973C170.497 18.5077 168.923 15.7076 165.985 14.6034C160.261 12.4519 153.052 14.4409 147 13L147 11C153.212 9.52107 163.892 8.33052 169.961 10.7423C173.397 12.1079 175.655 15.3799 179 17C177.328 14.4818 175.562 11.5414 172.829 10.0278C168.052 7.38121 159.326 8.96405 154 9.00076C151.982 9.01468 149.319 8.71638 147.603 10.0232C146.025 11.2256 146.137 13.2417 146 15z"/>
<path style="fill:#5b6ca6; stroke:none;" d="M176 9C176.526 11.5431 176.878 12.535 179 14C178.251 11.7462 177.656 10.6865 176 9z"/>
<path style="fill:#2c333f; stroke:none;" d="M147 11L147 13C155.637 15.5529 162.901 12.9057 171 18L169 13L174 14C170.123 7.36412 153.58 9.05498 147 11z"/>
<path style="fill:#23272a; stroke:none;" d="M169 13C170.559 17.4161 172.25 19.4552 177 20C175.277 15.9788 173.411 13.7118 169 13z"/>
<path style="fill:#2c323e; stroke:none;" d="M174 14L177 20L171 19C173.766 21.0961 176.655 20.4652 179.715 21.8573C182.346 23.0547 184.603 25.3897 187 27L185 21L191 23L191 19C184.607 17.8131 179.711 17.3867 174 14z"/>
<path style="fill:#47547a; stroke:none;" d="M177 14C180.031 17.0956 182.918 16.2761 186.7 17.7685C189.849 19.0111 192.662 22.1082 194.872 24.5795C199.603 29.8687 192.613 32.305 188.09 29.9769C185.043 28.4086 183.39 25.9914 180 25C181.474 28.0385 183.678 30.9174 187.174 31.7215C192.561 32.9608 197.989 30.3753 200 37C204.576 30.1646 209.296 32.6204 216 35C213.127 29.5208 206.375 31 201 31C199.737 25.7314 194.085 18.6606 188.91 16.6034C185.313 15.1731 180.806 15.1876 177 14z"/>
<path style="fill:#5869a0; stroke:none;" d="M179 14C181.574 15.0826 184.386 14.7186 186.985 15.7423C192.514 17.9198 198.891 25.6002 201 31C204.619 31 209.327 30.2402 212.674 31.858C215.56 33.2527 217.239 36.355 220 38C216.368 29.7711 211.106 30 203 30C200.799 19.1295 188.88 14.0011 179 14z"/>
<path style="fill:#434f73; stroke:none;" d="M146 15C151.222 17.1914 158.368 16 164 16C158.778 13.8086 151.632 15 146 15z"/>
<path style="fill:#4f5d8c; stroke:none;" d="M180 15C182.613 16.0977 185.164 15.9928 188 16C185.387 14.9023 182.836 15.0072 180 15z"/>
<path style="fill:#4e5d8d; stroke:none;" d="M146 16C151.222 18.1914 158.368 17 164 17C158.778 14.8086 151.632 16 146 16z"/>
<path style="fill:#445074; stroke:none;" d="M164 16C169.321 22.2 171.742 23.9991 180 24C177.588 22.985 174.632 23.3489 172.375 21.973C169.089 19.9697 167.932 17.1298 164 16z"/>
<path style="fill:#56679d; stroke:none;" d="M152 17C155.48 18.4601 159.403 17.2752 162.871 18.7415C165.609 19.8989 167.343 22.6165 170 24C166.331 15.7569 159.919 17 152 17z"/>
<path style="fill:#39425a; stroke:none;" d="M179 17C181.89 18.2129 184.874 17.9983 188 18C185.11 16.7871 182.126 17.0017 179 17z"/>
<path style="fill:#808f9d; stroke:none;" d="M145 18C147.332 18.9845 149.457 18.9813 152 19C149.668 18.0155 147.543 18.0187 145 18z"/>
<path style="fill:#6478bd; stroke:none;" d="M152 18C156.339 19.8206 161.407 19.3261 166 21C162.989 16.7383 156.734 18 152 18z"/>
<path style="fill:#7f95d4; stroke:none;" d="M150 19C154.617 25.3193 162.858 31.7887 170 35C166.386 28.6942 156.965 21.0549 150 19z"/>
<path style="fill:#7289d7; stroke:none;" d="M153 19C156.704 25.4244 167.941 28.2711 169 36L183 36C181.65 26.2621 177.246 29.3824 170.188 26.3966C167.249 25.1532 166.381 21.7759 163.737 20.179C160.724 18.3591 156.371 19.0004 153 19z"/>
<path style="fill:#23272a; stroke:none;" d="M185 21L187 28L194 28C191.584 24.2308 189.463 21.9196 185 21z"/>
<path style="fill:#6579bd; stroke:none;" d="M166 22C168.726 28.5054 176.08 26.8424 182 29C179.432 25.3653 176.02 26.707 172.171 25.4907C169.96 24.7921 167.978 23.1718 166 22z"/>
<path style="fill:#2a303a; stroke:none;" d="M191 23C191.878 25.0175 192.652 26.2324 194 28L187 28C190.525 30.6674 194.51 30.4905 196 26L191 23z"/>
<path style="fill:#8ea0bf; stroke:none;" d="M153 24C156.396 29.4175 162.133 32.9423 166 38L169 36C165.847 30.9668 158.849 25.1827 153 24z"/>
<path style="fill:#4f5e8c; stroke:none;" d="M170 24C173.163 25.3274 176.586 24.9996 180 25C176.837 23.6726 173.414 24.0004 170 24z"/>
<path style="fill:#5a6ca5; stroke:none;" d="M170 25C173.163 26.3274 176.586 25.9996 180 26C176.837 24.6726 173.414 25.0004 170 25z"/>
<path style="fill:#92a4bc; stroke:none;" d="M58 82C57.0197 80.2167 57.0924 80.4057 55 80C55 71.7377 53.1737 60.9848 55.5725 53.0432C57.3201 47.2576 65.1207 42.1017 69.3202 38.0008C71.162 36.2022 72.7618 33.6145 75.2091 32.5995C79.0967 30.9873 84.8621 32 89 32C95.1786 32 107.332 29.6367 110.972 36.1088C113.398 40.4213 111.672 45.8099 106.981 47.3472C101.31 49.2056 93.9072 47.9599 88.0008 48.0008C85.9063 48.0152 83.458 47.7899 81.6335 49.027C79.9557 50.1646 79.0394 52.2084 77.6111 53.615C73.3408 57.8204 66.6563 64.5915 73.0324 70.9676C76.7207 74.6559 82.5391 71.4619 86.4715 74.5995C90.699 77.9727 92.8802 81.4798 98 84C96.6256 79.2026 90.6067 71.9291 85.9066 69.858C81.7992 68.0481 74.5975 69.9472 75.287 63.01C75.549 60.3743 77.2685 58.5466 79.0193 56.7299C85.9333 49.5556 93.6931 51.0006 103 51C106.341 50.9998 111.8 51.9368 113.972 48.6821C115.388 46.5598 114.995 43.4148 115 41C115.006 37.9024 115.819 33.0257 113.397 30.6034C111.326 28.5326 107.659 29.0055 105 29L86 29C81.6556 29 75.2197 27.83 71.5949 30.7423C68.6376 33.1183 66.59 36.774 63.8295 39.4236C60.7877 42.3432 55.4845 45.2822 53.7423 49.2091C51.5896 54.0612 53 61.7816 53 67C53 72.7269 51.3743 79.9886 58 82z"/>
<path style="fill:#6478bb; stroke:none;" d="M182 29C183.177 36.3811 189.997 35 196 35C192.568 33.5597 188.7 34 185 34C184.573 31.3555 184.179 30.5394 182 29z"/>
<path style="fill:#687dc4; stroke:none;" d="M203 29C207.972 31.0864 212.949 30.2212 218 33C215.009 27.5759 208.471 29 203 29z"/>
<path style="fill:#798fd3; stroke:none;" d="M73.598 33.0131C69.5845 35.5104 65.5377 40.5402 62.2855 43.9715C60.4673 45.8897 57.6784 47.9152 56.5995 50.375C54.6349 54.8544 56 62.1781 56 67C56 70.0338 55.1441 74.8263 57.0278 77.4406C58.7841 79.8782 65.38 84.2705 68.1698 85.3974C70.6482 86.3985 73.4779 85.6771 75.8711 87.0278C81.1607 90.013 84.8558 97.4933 89.7454 101.4C94.408 105.126 101.842 101.185 103.697 109.04C105.351 116.047 101 117.834 97.0394 122.273C95.0911 124.457 93.7737 127.247 90.9066 128.397C87.449 129.783 82.6564 129 79 129C75.3146 129 68.4245 127.715 66.0278 131.318C64.0454 134.298 64.8121 140.785 68.2785 142.397C70.773 143.556 74.3276 143 77 143C83.7213 143 95.8522 145.325 101.816 141.973C107.435 138.815 115.838 129.195 117.571 122.91C118.59 119.213 118 114.801 118 111C118 107.433 118.838 102.512 116.972 99.3002C115.364 96.5315 110.699 92.0545 107.741 90.7384C104.939 89.492 101.809 90.289 99.1883 88.3974C94.3913 84.9351 91.7474 78.4443 87.2153 74.5995C82.0401 70.2092 72.5497 75.7561 71.1451 65.9606C70.1644 59.1217 74.3634 57.8523 78.3665 53.615C80.2596 51.6111 81.2361 49.1139 84.1049 48.3179C88.3006 47.1538 93.672 48.0003 98 48C101.988 47.9997 109.266 49.0577 111.397 44.6057C113.472 40.2691 111.784 33.8069 106.981 32.4336C100.16 30.4836 91.0665 32 84 32C80.8194 32 76.4275 31.2526 73.598 33.0131z"/>
<path style="fill:#4e5c89; stroke:none;" d="M185 32C188.474 33.4577 192.433 32.1412 195.856 33.6034C198.413 34.6956 198.957 37.3686 200.722 39.2515C205.24 44.0697 210.927 47.669 215 53C215.802 49.0462 212.083 46.7533 209.593 44.0046C207.331 41.5071 204.697 39.8274 202.295 37.5347C200.686 35.9992 199.794 33.5718 197.701 32.6034C194.235 30.9997 188.751 32 185 32z"/>
<path style="fill:#434e70; stroke:none;" d="M204 39C202.009 31.8488 208.869 32.8972 213 36.2245C220.218 42.0384 222.999 45.82 223 55C220.108 54.194 218.906 53.3233 217 51C215.62 56.0349 220.816 55.0234 222.973 58.3171C224.752 61.0344 223.836 64.9694 225.05 67.9815C226.377 71.2724 229.283 72.5783 230.991 75.4144C232.464 77.8614 231.998 81.2651 232 84C235.824 74.8879 228.302 72.4073 225.762 65C224.191 60.4216 227.184 58.9375 231 60C229.406 57.0639 225.881 55.8645 224.603 52.8565C223.423 50.078 224.482 46.8576 223.397 44.0394C221.83 39.9744 215.893 34.8622 211.961 33.0895C206.989 30.8481 196.5 34.1219 204 39z"/>
<path style="fill:#596aa3; stroke:none;" d="M185 33C188.153 34.3229 191.735 33.3664 194.853 34.7415C197.245 35.7968 198.076 38.4457 200 40C198.153 31.6297 192.302 33 185 33z"/>
<path style="fill:#363f55; stroke:none;" d="M208 41C206.523 38.6774 205.106 36.5127 204 34L210 34C202.498 30.8861 201.32 37.7785 208 41z"/>
<path style="fill:#677bc1; stroke:none;" d="M218 33C219.37 37.5122 221.359 39.87 226 41L226 52C229.677 43.2372 224.436 38.065 218 33z"/>
<path style="fill:#6d82ce; stroke:none;" d="M183 34C179.097 37.9025 169.273 33.0582 168 39C172.08 37.4366 177.384 35.5955 181.447 38.3171C183.987 40.0188 185.205 42.538 188 44L186 37C188.154 36.7353 190.77 35.988 192.897 36.6929C197.167 38.1075 200.738 43.713 205 46C202.767 41.8501 198.791 39.905 198 35C192.919 35 187.97 35.1832 183 34z"/>
<path style="fill:#2a303a; stroke:none;" d="M204 34C206.108 41.5126 213.543 45.9209 218 52C221.687 50.7773 221.88 48.6916 222 45C221.221 46.769 221.088 48.036 221 50C215.07 46.2807 210.888 40.9285 206 36C208.502 35.5975 210.489 35.6415 213 36C210.196 33.8753 207.466 34.0115 204 34z"/>
<path style="fill:#7289da; stroke:none;" d="M91 101C94.8206 101 99.5776 100.346 102.852 102.742C111.251 108.889 102.54 123.234 97.4159 128.581C90.6138 135.68 76.8706 126.986 69.3179 132.028C66.2354 134.086 66.3952 139.568 70.1481 140.682C72.848 141.484 76.2142 141 79 141C84.7669 141 92.2489 142.265 97.8156 140.682C102.089 139.467 106.589 133.167 109.575 130C116.07 123.111 115.644 119.034 116.039 110C116.158 107.282 117.371 103.847 116.357 101.224C115.344 98.6017 109.24 93.4305 106.791 92.027C103.318 90.0367 98.7436 92.2026 95.4298 89.9722C93.474 88.6559 93.1787 86.2106 91.8657 84.4136C90.0012 81.8615 86.1545 78.5086 83.625 76.5988C78.8468 72.991 71.6406 77.2664 69.3179 69.9807C68.9249 68.748 69.0265 67.2757 69.0046 66C68.8685 58.046 71.5676 56.3911 76.6258 50.9113C78.6365 48.7329 80.027 46.3073 83.0432 45.4336C88.8402 43.7545 96.008 45.2435 101.996 44.9807C105.866 44.8109 110.579 42.1538 108.381 37.4336C106.202 32.7541 92.292 35 88 35C84.5199 35 79.5223 34.1384 76.314 35.7423C73.8377 36.9803 73.5763 40.2532 71.6613 42.1065C68.5117 45.1546 62.5842 49.3662 60.7384 53.2994C58.612 57.8307 59.0892 69.1727 60.5725 73.8958C61.5207 76.9149 66.1274 82.7601 69.2238 83.6821C72.3522 84.6137 75.8072 83.4245 78.8912 84.7423C81.8881 86.0229 82.3197 88.8925 84.2739 91.1265C87.6152 94.9463 90.5682 95.2929 91 101z"/>
<path style="fill:#23272a; stroke:none;" d="M206 36C209.911 41.5735 214.634 47.2973 221 50C220.764 42.7938 213.703 34.1293 206 36z"/>
<path style="fill:#4f5d8b; stroke:none;" d="M216 35C216.684 36.58 216.805 36.7772 218 38C217.316 36.42 217.195 36.2228 216 35z"/>
<path style="fill:#839098; stroke:none;" d="M167 36C164.109 45.1221 166.176 48.6776 175 52C173.348 48.82 169.67 47.6166 168.153 44.6103C166.792 41.913 168.457 38.8626 167 36z"/>
<path style="fill:#7288d9; stroke:none;" d="M186 37C186.789 43.2881 190.287 45.178 194.166 49.6296C197.088 52.9838 199.273 56.8442 202.514 59.9606C207.079 64.3502 212.676 68.1618 216.686 73.1042C221.244 78.7225 217.726 84.4905 227 85C227.297 82.6406 228.249 79.6327 227.357 77.3248C226.207 74.3478 222.784 73.0226 221.603 69.9599C220.304 66.5871 221.85 62.6492 219.973 59.439C215.749 52.2146 207.518 47.8467 201.043 43.0957C198.527 41.249 196.708 37.7823 193.791 36.6181C191.363 35.6492 188.446 36.5478 186 37z"/>
<path style="fill:#313849; stroke:none;" d="M213 36C214.994 40.2407 217.978 42.6736 222 45C219.93 41.1234 216.584 38.4969 213 36z"/>
<path style="fill:#6475af; stroke:none;" d="M170 37L170 39L181 39C182.474 43.9515 186.166 47.3434 191 49C186.302 39.3425 179.978 37 170 37z"/>
<path style="fill:#7790e7; stroke:none;" d="M189 42C198.229 41.2814 190.378 34.0627 189 42z"/>
<path style="fill:#4d5b88; stroke:none;" d="M218 38C219.872 40.2009 222.367 42.2453 223.397 45.0147C224.429 47.7884 223.361 51.0182 224.603 53.7014C225.452 55.5342 227.363 56.284 228.81 57.544C232.488 60.7457 234.039 63.6934 239 65C236.775 62.0765 234.099 59.1129 231.291 56.7083C229.621 55.2779 227.244 54.6229 226.027 52.6975C222.038 46.3883 227.331 41.0151 218 38z"/>
<path style="fill:#576492; stroke:none;" d="M169 39C172.598 40.5134 177.095 40.5064 181 41C178.283 37.8902 172.896 39 169 39z"/>
<path style="fill:#76818e; stroke:none;" d="M168 40C167.356 42.1059 167.094 43.7951 167 46L170 40L168 40z"/>
<path style="fill:#4f587b; stroke:none;" d="M170 40C172.613 41.0977 175.165 40.9928 178 41C175.387 39.9023 172.835 40.0072 170 40z"/>
<path style="fill:#5d6fab; stroke:none;" d="M200 40C204.461 45.6813 210.939 52.107 217 56C214.434 49.4314 206.954 41.6671 200 40z"/>
<path style="fill:#61686e; stroke:none;" d="M169 41C168.29 44.0576 168.331 45.2684 171 47C170.769 44.8743 170.754 43.1209 171 41L169 41z"/>
<path style="fill:#474c5b; stroke:none;" d="M171 48C174.05 48.8241 176.328 50.3117 179 52C177.446 48.1923 174.555 46.1073 172 43C181.007 43.2179 190.824 52.8043 194 61L187 60C190.04 62.303 193.268 61.9971 197 62C195.893 55.2434 190.729 52.0772 186.1 47.777C184.202 46.0136 182.855 43.3968 180.625 42.0278C174.819 38.4628 170.068 41.9859 171 48z"/>
<path style="fill:#374057; stroke:none;" d="M208 41C209.078 44.1074 210.082 45.4831 213 47C211.545 44.5144 210.218 42.8266 208 41z"/>
<path style="fill:#5a6ba3; stroke:none;" d="M225 41C225 48.3024 223.63 54.1526 232 56C230.212 54.3995 227.741 53.1495 226.742 50.8565C225.378 47.7281 226.324 44.1561 225 41z"/>
<path style="fill:#535d7e; stroke:none;" d="M182 42C183.609 46.7188 186.281 49.3912 191 51C188.796 47.5194 185.145 44.6862 182 42z"/>
<path style="fill:#3d3e41; stroke:none;" d="M172 43C176.065 50.3732 185.273 60.5222 194 61C191.846 51.9396 181.168 43.083 172 43z"/>
<path style="fill:#39425b; stroke:none;" d="M222 44C221.875 47.8776 221.498 50.0718 218 52C216.676 49.3134 215.687 48.3241 213 47C215.688 51.0495 218.029 54.2168 223 55C223 51.2998 223.44 47.4324 222 44z"/>
<path style="fill:#697cbe; stroke:none;" d="M190 46C191.751 49.505 193.526 52.1272 197 54C195.471 50.2158 193.693 47.8089 190 46z"/>
<path style="fill:#626a70; stroke:none;" d="M173 48C175.307 52.0372 177.544 55.3503 182 57C179.565 53.1108 177.186 49.9933 173 48z"/>
<path style="fill:#5f6ea2; stroke:none;" d="M191 49C192.524 54.0108 195.28 56.0035 200 58C198.015 54.2395 194.356 51.5954 191 49z"/>
<path style="fill:#8191ad; stroke:none;" d="M173 51C174.012 54.8335 175.127 56.8356 179 58C177.164 55.5035 175.228 53.1504 173 51z"/>
<path style="fill:#8a9dc4; stroke:none;" d="M55 52L55 80C59.23 82.1456 60.7959 86.5147 64.4946 88.973C67.7865 91.161 72.3016 89.1209 75.7407 91.179C81.0368 94.3484 83.8033 101.517 89.3248 104.683C92.994 106.786 98.8467 106.475 103 107C102.952 112.334 102.14 115.451 98 119C104.903 120.836 105.629 109.647 102.566 105.573C99.7461 101.821 94.8865 104.076 91.3248 101.973C86.1029 98.8899 83.0037 92.239 77.6998 89.1782C74.733 87.4661 71.1808 88.5261 68.0934 87.2585C64.596 85.8226 59.7971 80.7441 57.5995 77.6998C52.6493 70.8424 58.1895 59.6009 55 52z"/>
<path style="fill:#707c91; stroke:none;" d="M175 52C175.684 54.209 176.08 54.7034 178 56C177.064 54.0514 176.608 53.4498 175 52z"/>
<path style="fill:#4a5068; stroke:none;" d="M179 52C182.835 60.5467 188.094 62.999 197 63C194.505 61.9501 191.562 62.3013 189.17 60.9722C185.193 58.7626 183.003 54.2942 179 52z"/>
<path style="fill:#778fe6; stroke:none;" d="M211 52C210.252 52.0582 208.787 51.9769 207.988 52.3179C201.919 54.906 209.136 62.169 210.852 55.1019C211.069 54.2092 210.972 52.845 211 52z"/>
<path style="fill:#6a7fc8; stroke:none;" d="M231 54C232.33 55.7525 233.247 56.6697 235 58C234.161 55.3735 233.626 54.8387 231 54z"/>
<path style="fill:#566186; stroke:none;" d="M193 55C194.958 57.7163 196.472 59.657 197 63L187 63C191.959 65.081 199.569 64.8879 205 65C202.022 60.0362 198.638 56.6336 193 55z"/>
<path style="fill:#6374ae; stroke:none;" d="M178 56C179.841 58.9581 182.863 63.8376 186.133 65.2577C189.524 66.7309 194.554 64.9195 196.972 68.4336C198.856 71.1701 197.437 74.9657 198.603 77.9568C199.863 81.186 203.309 82.3327 204.972 85.2091C208.397 91.1308 204.758 96.1647 213 99C211.128 96.7987 208.634 94.7547 207.603 91.9853C206.56 89.1869 207.528 85.9769 205.976 83.3256C204.424 80.6741 201.224 79.4894 199.858 76.6744C198.379 73.6271 200.103 69.2938 197.972 66.6034C196.159 64.3144 192.53 65.3676 190.093 64.3974C185.221 62.457 183.497 57.456 178 56z"/>
<path style="fill:#596ba3; stroke:none;" d="M217 56C218.477 57.9206 220.528 59.7915 221.401 62.091C223.795 68.3964 221.701 71.7512 229 75C227.579 72.6781 225.04 71.1263 223.857 68.6713C221.064 62.8747 224.74 58.376 217 56z"/>
<path style="fill:#4e5c89; stroke:none;" d="M219 56C223.787 60.8363 221.078 68.8955 227 72C225.094 66.6319 225.231 57.0399 219 56z"/>
<path style="fill:#6276b7; stroke:none;" d="M232 56C232.812 58.7817 233.453 59.6274 236 61C235.162 58.3867 234.29 57.5362 232 56z"/>
<path style="fill:#8c9fc0; stroke:none;" d="M173 57L173 78L177 78C174.362 71.1161 174.665 64.1932 176 57L173 57z"/>
<path style="fill:#6c81c9; stroke:none;" d="M176 58C178.764 60.5819 181.167 65.0646 184.274 66.9722C187.332 68.8493 191.72 66.9267 194.397 69.6034C197.228 72.4351 195.084 77.1909 197.603 80.3202C199.349 82.4895 202.252 83.5377 203.397 86.2091C204.668 89.1762 203.285 92.6866 205.028 95.5324C206.856 98.5172 210.689 99.5111 211.682 103.104C214.103 111.861 212 123.917 212 133C212 138.852 213.819 148.378 211.397 153.772C210.109 156.638 206.74 156.309 205.028 158.588C202.499 161.953 205.302 167.052 202.973 170.571C201.894 172.201 199.957 172.69 198.54 173.918C196.72 175.496 195.803 177.781 193.86 179.278C191.717 180.93 188.913 181.438 187.746 184.144C186.24 187.638 187.843 192.332 188 196C184.256 196 179.562 195.302 176.213 197.318C173.614 198.882 172.619 202.182 169.787 203.397C166.716 204.715 163.212 203.512 160.213 205.318C157.316 207.062 156.344 210.73 152.895 211.682C146.411 213.472 137.711 212 131 212C122.51 212 111.293 213.946 103.104 211.682C99.2366 210.613 98.2504 206.137 94.6991 204.603C91.7598 203.334 88.2032 204.761 85.4144 202.973C81.6527 200.561 78.0031 195.303 74.7153 192.11C69.4364 186.984 62.568 182.56 59 176C57.3157 181.718 65.1176 186.786 69.0748 190C74.2056 194.167 77.6583 201.692 83.3002 204.972C89.928 208.826 95.7665 204.522 99 214L136 214C141.518 214 148.557 215.163 153.895 213.682C157.41 212.707 158.25 208.917 161.213 207.179C164.19 205.433 167.741 206.715 170.787 205.397C173.667 204.15 174.552 200.74 177.213 199.179C180.736 197.113 186.073 198 190 198C190 194.452 189.466 190.34 190.938 187.015C193.771 180.62 201.521 177.52 204.973 171.675C206.864 168.473 205.146 164.422 207.028 161.213C208.611 158.514 212.125 157.719 213.397 154.787C215.366 150.246 214 142.879 214 138L214 99C205.742 96.1826 208.151 91.6405 205.397 85.2091C204.096 82.1719 200.573 80.8875 199.028 77.9568C197.449 74.9625 198.875 71.3463 197.397 68.4336C195.59 64.8746 190.151 66.5284 187.055 65.2577C182.354 63.3285 181.548 58.903 176 58z"/>
<path style="fill:#6374ae; stroke:none;" d="M201 58C202.112 63.2335 206.525 65.2905 210 69C210.669 64.0389 204.389 60.9055 201 58z"/>
<path style="fill:#323a4c; stroke:none;" d="M227 69C227.629 66.3837 227.11 63.7168 227 61L234 65C233.078 62.7303 229.209 56.048 226.028 59.6582C223.781 62.2075 225.811 66.5292 227 69z"/>
<path style="fill:#8398cb; stroke:none;" d="M175 59C175 63.5027 172.77 74.8793 178 76C176.669 70.4077 177 64.7168 177 59L175 59z"/>
<path style="fill:#7188da; stroke:none;" d="M177 59C177 65.2971 177.457 71.728 177 78C181.469 78.2077 186.347 79.0026 187.683 84.0185C188.317 86.4005 187.581 89.3146 189.179 91.4012C190.908 93.6584 194.065 93.3975 195.566 96.1481C198.497 101.515 197 110.1 197 116L197 160L203 159L203 172C204.585 168.222 202.995 163.859 204.603 160.147C206.051 156.807 210.605 157.294 211.682 153.772C213.093 149.156 212 142.801 212 138L212 114C212 110.33 212.718 105.761 211.682 102.209C210.678 98.7657 206.759 97.6642 205.028 94.6991C203.34 91.8093 204.737 88.3195 203.397 85.3758C202.085 82.4965 198.613 81.4126 197.028 78.6991C195.422 75.9502 196.945 72.0933 194.972 69.6034C192.789 66.8478 188.003 68.6056 185.133 66.9722C181.744 65.044 180.497 61.0335 177 59z"/>
<path style="fill:#7891e8; stroke:none;" d="M218 68C218.648 65.2908 218.942 62.7845 219 60C212.644 60.4952 211.704 66.0885 218 68z"/>
<path style="fill:#6e84d0; stroke:none;" d="M221 60C221 63.3923 220.325 67.7004 221.603 70.9066C222.693 73.6399 225.596 74.7912 226.883 77.3248C228.021 79.564 227.18 82.6122 227 85L223 85C228.235 93.8275 227 103.012 227 113L227 146C227 151.431 227.859 157.756 226.196 162.996C225.025 166.684 222.038 168.257 220.175 171.375C217.43 175.969 220.016 180.746 216 185C219.274 188.306 219.902 191.433 220 196C221.552 192.303 221 187.983 221 184C229.977 182.359 229 175.574 229 168C241.094 165.79 237 148.419 237 139L237 108C237 103.341 237.892 97.6133 236.682 93.0895C235.714 89.4686 232.082 87.4736 230.742 83.9961C229.721 81.345 230.613 78.0359 228.972 75.6335C227.387 73.3123 224.439 72.4523 223.028 69.8951C221.361 66.8758 222.319 63.1445 221 60z"/>
<path style="fill:#23272a; stroke:none;" d="M227 61C227.148 67.8966 229.125 71.9511 236 74C235.813 68.3412 232.591 62.7423 227 61z"/>
<path style="fill:#6072b2; stroke:none;" d="M236 61C237.624 63.0436 238.643 63.8965 241 65C239.376 62.9564 238.357 62.1036 236 61z"/>
<path style="fill:#5b6896; stroke:none;" d="M188 64C190.854 65.1978 195.095 64.3011 197.397 66.6034C200.414 69.6213 197.968 74.7973 200.318 78.24C202.076 80.8154 205.198 82.067 206.397 85.0934C207.523 87.9332 206.547 91.1409 208.028 93.9105C209.867 97.3501 213.668 99.0077 214.682 103.004C215.997 108.187 215 114.674 215 120L215 156C216.981 151.28 216 145.08 216 140L216 113C216 108.997 216.77 104.055 215.682 100.174C214.683 96.6089 210.875 95.0653 209.179 91.9097C207.455 88.7018 208 84.5156 208 81C204.447 79.3281 201.535 76.9866 200.434 73C199.752 70.5325 200.658 66.819 198.397 65.0278C195.949 63.0893 190.927 64 188 64z"/>
<path style="fill:#2d333f; stroke:none;" d="M232 64C233.671 67.5475 235.692 69.9623 236 74L233 73C233.719 76.8733 233.253 82.2523 235.318 85.6566C237.267 88.8707 241.611 89.1305 242.682 93.0579C245.084 101.868 243 113.867 243 123C243.779 121.231 243.912 119.964 244 118L246 119C246 107.744 248.194 93.806 245 83C244.221 84.769 244.088 86.0359 244 88C240.18 86.6391 238.488 84.7507 237 81L243 83C239.352 77.3853 238.004 73.7086 238 67L232 64z"/>
<path style="fill:#434f72; stroke:none;" d="M234 64C237.914 67.9778 238.98 70.3819 239 76C240.44 72.5676 240 68.7002 240 65L234 64z"/>
<path style="fill:#515a78; stroke:none;" d="M200 65L200 75C202.131 69.9826 202.464 64.487 208 71C209.055 65.7524 204.159 65.1009 200 65z"/>
<path style="fill:#374057; stroke:none;" d="M234 65C235.223 66.1952 235.42 66.3164 237 67C235.777 65.8049 235.58 65.6836 234 65z"/>
<path style="fill:#4f5e8c; stroke:none;" d="M240 65L240 76C241.431 72.59 241.431 68.41 240 65z"/>
<path style="fill:#5a6ca5; stroke:none;" d="M241 65L241 76C242.431 72.59 242.431 68.41 241 65z"/>
<path style="fill:#4c5268; stroke:none;" d="M207 81C205.594 76.0486 202.165 73.5269 202 68L207 70C203.603 63.8785 200.391 68.9319 201.149 73.9992C201.704 77.7097 203.828 79.4713 207 81z"/>
<path style="fill:#5b6997; stroke:none;" d="M208 66C208.526 68.5431 208.878 69.535 211 71C210.199 68.896 209.503 67.6631 208 66z"/>
<path style="fill:#39435c; stroke:none;" d="M238 67C238 70.5757 237.5 74.6965 239.179 77.9853C240.906 81.3684 244.69 83.2486 245.682 87.0394C248.536 97.9417 238.915 122.446 256 123L256 121C240.276 119.814 249.361 95.338 246.682 85.0394C245.759 81.4906 242.411 79.4657 240.608 76.4097C238.87 73.464 239.283 70.0493 238 67z"/>
<path style="fill:#3f4042; stroke:none;" d="M202 68C202.078 74.9238 205.353 78.1039 212 80C211.149 74.4612 207.438 69.5947 202 68z"/>
<path style="fill:#687abb; stroke:none;" d="M211 69C212.625 71.306 214.336 72.0634 217 73C215.104 70.8186 213.741 69.9311 211 69z"/>
<path style="fill:#444852; stroke:none;" d="M207 70C208.58 73.4761 210.973 76.2942 212 80L206 77C207.079 79.6982 208.875 82.2163 209.586 85.0394C210.225 87.5815 209.796 90.3347 211.178 92.6752C213.043 95.8323 216.51 97.2477 217.566 101.015C219.17 106.731 218 114.094 218 120C218 130.772 220.297 144.512 217.686 154.961C216.688 158.954 212.814 160.816 210.988 164.289C208.975 168.119 208.499 173.776 207 178L212 176C209.658 183.635 200.267 186.923 198 195C202.896 191.165 209.955 185.286 212.972 179.83C214.479 177.106 213.892 173.813 215.433 171.039C217.237 167.792 220.545 165.694 221.567 161.985C222.911 157.107 222 151.027 222 146L222 114C222 108.136 223.777 98.7988 221.4 93.375C219.998 90.1741 216.544 88.3235 215.09 84.9961C213.847 82.1529 214.545 78.9756 213.397 76.1705C212.229 73.3197 209.438 71.6319 207 70z"/>
<path style="fill:#535d7f; stroke:none;" d="M209 71C212.609 75.5521 214.929 77.9558 215 84C217.494 78.0532 214.931 73.0403 209 71z"/>
<path style="fill:#5a6793; stroke:none;" d="M211 71C215.483 76.0835 214.663 80.2261 217.228 85.946C218.672 89.1659 222.146 90.7744 223.4 94.054C224.543 97.0423 224 100.862 224 104L224 123L224 148C224 152.46 224.698 157.66 223.427 161.985C222.273 165.914 218.453 167.53 216.858 171.104C215.573 173.983 216.235 177.193 214.397 179.91C208.827 188.144 199.487 194.334 192.88 201.544C188.724 206.078 184.637 212.069 178.961 214.976C176.492 216.241 173.611 215.739 171.104 216.858C167.53 218.453 165.914 222.273 161.985 223.427C156.802 224.95 150.354 224 145 224L113 224C107.362 224 99.374 225.435 94.054 223.4C90.7744 222.146 89.1659 218.672 85.946 217.228C82.4552 215.663 78.3381 216.604 75.1042 214.4C71.2289 211.76 69.7506 208.445 65 207C67.891 210.694 71.1361 213.61 73 218C76.8166 218 81.3425 217.445 84.8264 219.317C88.3214 221.195 89.7491 224.55 94.0394 224.941C109.094 226.313 124.878 225 140 225C147.345 225 156.873 226.606 163.957 224.566C167.421 223.569 168.883 220.081 172.104 218.742C175.092 217.499 178.731 218.671 181.505 216.822C183.449 215.527 184.51 213.107 186.22 211.525C192.894 205.347 198.899 199.079 205.096 192.424C208.304 188.979 213.287 185.628 215.682 181.625C217.421 178.719 216.652 175.068 218.317 172.104C220.264 168.64 223.985 167.181 224.772 162.985C226.706 152.661 225 140.503 225 130C225 118.181 226.802 104.741 224.852 93.0903C224.239 89.4267 220.97 87.9026 219.317 84.8264C217.445 81.3425 218 76.8166 218 73L211 71z"/>
<path style="fill:#4e5c8a; stroke:none;" d="M229 73C230.174 76.762 230.956 80.0408 231 84C232.652 80.0639 232.599 75.5958 229 73z"/>
<path style="fill:#687bbc; stroke:none;" d="M218 74C218 77.744 217.403 82.311 219.318 85.6998C221.312 89.2291 225.16 90.677 225.852 95.0147C227.019 102.338 226 110.587 226 118L226 163C229.004 155.841 227 144.744 227 137L227 106C227 101.267 227.83 95.598 226.566 91.0008C225.476 87.0316 221.902 85.2425 220.027 81.8302C218.707 79.4289 219.051 76.4986 218 74z"/>
<path style="fill:#39425a; stroke:none;" d="M233 75L233 84C234.256 81.0059 234.256 77.9941 233 75z"/>
<path style="fill:#4f5772; stroke:none;" d="M214 76C214.002 79.7173 213.713 83.5857 215.573 86.9568C217.231 89.9646 220.764 91.7141 221.683 95.1042C223.448 101.618 222 110.267 222 117L222 146C222 150.739 222.82 156.39 221.567 160.996C220.452 165.095 216.631 167.291 214.938 171.039C213.44 174.356 214.171 177.743 211.686 180.715C206.953 186.374 199.942 190.553 198 198C202.001 194.361 205.348 189.941 209.169 186.075C211.112 184.108 213.638 182.388 214.972 179.91C216.45 177.166 215.776 173.862 217.317 171.104C218.655 168.71 221.344 167.344 222.4 164.791C225.12 158.219 223 147.069 223 140L223 109C223 104.059 223.973 97.923 222.686 93.1289C221.854 90.029 218.695 87.9727 217.059 85.267C215.276 82.3195 215.297 79.0533 214 76z"/>
<path style="fill:#5a6ba5; stroke:none;" d="M230 76C230.002 79.272 229.616 82.9605 231.179 85.9606C233.143 89.7307 237.145 91.5127 237.852 96.0039C238.956 103.024 238 110.896 238 118L238 163C240.903 156.081 239 145.48 239 138L239 107C239 102.416 239.943 96.6186 238.682 92.1844C237.778 89.0043 234.495 87.5434 232.742 84.9066C230.942 82.2018 231.223 78.8861 230 76z"/>
<path style="fill:#445073; stroke:none;" d="M241 76C242.22 80.1704 246.167 82.6408 246.852 87.0039C248.457 97.2334 240.931 120.511 256 121C253.4 119.625 250.681 118.699 249.179 115.941C242.8 104.229 255.912 83.2337 241 76z"/>
<path style="fill:#95a7e5; stroke:none;" d="M176 78C178.812 79.3108 181.97 80.2875 185 81C182.76 77.8303 179.683 78.0334 176 78z"/>
<path style="fill:#6376b8; stroke:none;" d="M245 78C246.502 80.3552 248.977 82.2652 249.686 85.054C251.446 91.9735 249.988 100.874 250 108C250.009 113.381 249.803 117.506 256 118C248.084 112.519 251 99.6478 251 91C251 84.7625 251.801 80.0876 245 78z"/>
<path style="fill:#8095cd; stroke:none;" d="M59 79C61.1438 81.841 63.8101 85.8111 67.1844 87.2585C70.6113 88.7283 75.3055 88.3141 79 89C75.6406 85.5696 72.0748 87.076 68.1698 84.9761C64.7595 83.1423 62.8044 80.3037 59 79z"/>
<path style="fill:#cad2f0; stroke:none;" d="M175 79C176.977 81.0891 180.399 82.0783 181.972 84.429C183.53 86.7568 182.998 90.3442 183 93C186.287 85.1676 183.429 79.0948 175 79z"/>
<path style="fill:#7f94dd; stroke:none;" d="M185 79C185.718 82.8684 184.917 89.2241 187.179 92.4545C189.363 95.5747 193.559 95.9462 194.682 100.09C195.67 103.734 195 108.252 195 112L195 137C195 146.127 197.204 156.027 189 162C192.216 163.112 194.853 161.311 195.697 157.906C197.051 152.44 196 145.612 196 140L196 110C196 105.733 196.9 100.267 195.682 96.1481C194.637 92.6133 190.229 93.1462 188.742 89.8519C186.901 85.7715 188.494 82.4221 185 79z"/>
<path style="fill:#a3b2bc; stroke:none;" d="M177 105C172.331 97.9226 173.193 87.7023 176 80C169.07 82.7856 169.778 102.719 177 105z"/>
<path style="fill:#778fe5; stroke:none;" d="M255 80C252.449 90.7151 254 103.02 254 114L256 114L256 92C256 88.0172 256.552 83.6987 255 80z"/>
<path style="fill:#c9d2d6; stroke:none;" d="M175 81C175 87.5692 172.542 99.2274 179 103C175.493 96.0223 175.194 88.5863 177 81L175 81z"/>
<path style="fill:#b1beec; stroke:none;" d="M184 81C184 85.7341 182.738 91.989 187 95C185.957 90.56 185.717 85.0912 184 81z"/>
<path style="fill:#9cace6; stroke:none;" d="M185 81L185 92C186.431 88.59 186.431 84.41 185 81z"/>
<path style="fill:#535c7d; stroke:none;" d="M208 81C208 84.7336 207.292 89.4427 209.179 92.8264C211.142 96.3462 215.152 97.7434 215.852 102.039C216.785 107.766 216 114.202 216 120L216 156C218.599 149.806 217 140.686 217 134L217 111C217 107.252 217.669 102.737 216.682 99.0934C215.74 95.6162 212.092 94.1583 210.742 90.9066C209.328 87.4984 210.164 84.1669 208 81z"/>
<path style="fill:#23272a; stroke:none;" d="M237 81C238.022 85.196 239.749 87.1005 244 88L244 83L237 81z"/>
<path style="fill:#596aa3; stroke:none;" d="M248 81C249.644 89.8548 248.999 99.023 249 108C249 114.276 248.537 119.431 256 120L256 118C249.87 116.999 250.009 112.369 250 107C249.988 99.7637 252.478 86.9105 248 81z"/>
<path style="fill:#8397ca; stroke:none;" d="M95 82C96.8385 89.7056 100.879 88.2267 106.871 90.7384C110.873 92.4159 117.166 98.7159 117.852 103.015C118.713 108.413 119.187 117.76 117.276 122.91C115.277 128.299 110.458 132.679 106.499 136.593C104.676 138.396 103.215 140.731 100.907 141.973C98.2645 143.395 94.892 142.999 92 143C85.2542 143.003 76.5808 144.451 70.0548 142.682C65.2043 141.367 63.3733 133.934 67.3179 130.603C69.6552 128.63 73.157 129.006 76 129C81.9447 128.988 88.2693 129.694 94 128C88.0574 125.506 79.4122 126.987 73 127C70.5852 127.005 67.4403 126.612 65.3179 128.028C60.3189 131.364 62.4262 143.229 68.1744 144.697C74.7487 146.375 83.2291 145 90 145C93.4726 145 97.6666 145.579 100.96 144.258C104.156 142.976 105.816 139.889 108.282 137.683C112.318 134.072 118.418 129.022 120.411 123.826C121.946 119.826 121 114.221 121 110C121 106.812 121.459 103.089 120.142 100.093C118.715 96.848 111.955 89.0426 108.737 87.6034C106.346 86.5339 103.539 87.3307 101.091 86.4012C98.7915 85.5282 96.9206 83.4773 95 82z"/>
<path style="fill:#d8dfe0; stroke:none;" d="M176 82L176 99C178.161 93.8502 176.687 87.5163 178 82L176 82z"/>
<path style="fill:#e6eaea; stroke:none;" d="M180 102C177.832 96.051 176.045 87.8526 181 83C177.64 82.2453 177.149 85.0241 177.019 88.0046C176.815 92.6749 175.709 99.2182 180 102z"/>
<path style="fill:#6a80c9; stroke:none;" d="M251 82L251 115C252.328 111.834 252 108.419 252 105C252 98.0493 253.701 88.4358 251 82z"/>
<path style="fill:#bbc6cc; stroke:none;" d="M174 83C174 89.7709 170.9 103.274 180 104C172.816 97.6273 177.23 90.6973 174 83z"/>
<path style="fill:#fafbfe; stroke:none;" d="M188 107C190.02 99.9012 184.823 99.674 182.603 93.9568C181.343 90.7109 182 86.4245 182 83C176.706 84.7572 176.407 95.3041 179.179 99.7014C181.008 102.603 185.392 104.697 188 107z"/>
<path style="fill:#f5f6fc; stroke:none;" d="M182 83C182 86.659 181.21 91.4476 182.603 94.8958C184.755 100.218 189.376 100.325 188 107C186.105 104.667 184.694 103.299 182 102C187.708 111.075 186 121.585 186 132C186 136.355 186.785 141.624 185.501 145.83C184.268 149.87 180.195 151.727 178.6 155.375C177.567 157.736 178.198 160.529 177.581 163C176.573 167.033 173.534 170.239 170.561 172.985C165.786 177.395 161.472 176.464 156.104 178.858C152.151 180.621 150.553 184.711 145.996 185.656C138.791 187.151 130.341 186 123 186C118.577 186 113.313 186.767 109.001 185.682C104.728 184.607 102.824 180.345 98.9105 178.742C93.896 176.688 87.3029 178.365 82 178C83.6539 182.983 88.4755 182 93 182C96.2798 191.567 106.863 190 115 190L142 190C146.055 190 150.982 190.733 154.907 189.566C158.524 188.491 159.909 184.742 163.093 183.027C166.067 181.426 169.583 182.509 172.406 180.451C175.467 178.218 180.118 174.458 181.436 170.829C183.788 164.357 181.666 158.366 190 156L190 119C190 113.389 191.077 106.495 189.683 101.039C188.807 97.6133 185.667 95.6426 184.148 92.561C182.652 89.5253 183.288 86.0675 182 83z"/>
<path style="fill:#4f5d8b; stroke:none;" d="M248 83L248 116C250.701 109.564 249 99.9507 249 93C249 89.5814 249.328 86.1656 248 83z"/>
<path style="fill:#505f8e; stroke:none;" d="M232 84C233.716 87.3647 237.685 89.4278 238.682 93.0934C240.532 99.8902 239 108.97 239 116L239 145C239 150.155 239.709 155.929 238.656 160.996C237.735 165.428 234.079 166.632 232.027 170.209C230.211 173.376 230.666 178.414 230 182C232.346 178.903 231.216 175.385 233.028 172.105C234.683 169.108 238.684 168.169 239.682 164.787C241.636 158.168 240 148.888 240 142L240 108C240 102.801 241.077 96.2165 239.683 91.1844C238.925 88.4514 236.32 86.4767 235 84L232 84z"/>
<path style="fill:#92a4bc; stroke:none;" d="M98 85C101.345 87.5341 105.305 85.953 108.737 88.0278C111.925 89.9555 115.986 95.3997 118.431 98.3248C121.474 101.964 121 106.553 121 111C121 114.715 121.72 119.369 120.411 122.91C118.342 128.508 111.779 133.797 107.498 137.683C104.99 139.96 103.278 142.967 99.9853 144.258C95.608 145.973 89.6215 145 85 145C75.6302 145 59.4389 146.848 63.3179 132.019C65.2199 124.748 76.337 127 82 127C85.3749 127 89.712 127.684 92.9059 126.397C99.8508 123.598 102.981 113.639 103 107C95.1124 105.536 89.9788 106.073 85 99C83.2448 106.712 89.4471 106.474 94.9954 107.109C97.7792 107.427 100.846 108.671 100.418 112.04C100.078 114.716 97.8805 116.59 96.1404 118.424C94.4277 120.229 92.8442 122.692 90.6752 123.973C86.4683 126.458 78.7318 125 74 125C70.4798 125 64.3206 123.882 62.0278 127.318C59.0143 131.834 60.3139 143.269 65.3295 145.91C68.4554 147.557 72.5915 147 76 147C84.165 147.001 95.097 148.908 102.941 146.566C106.997 145.356 111.927 137.492 114.644 134.12C116.911 131.308 120.66 129.223 122.146 125.871C123.808 122.122 123 117.003 123 113C123 108.603 123.798 103.259 122.486 99.0154C121.563 96.0311 119.342 94.426 117.144 92.4097C115.02 90.4606 113.338 87.7842 110.816 86.3179C107.172 84.2003 102.05 85 98 85z"/>
<path style="fill:#455176; stroke:none;" d="M240 89L240 164C242.189 158.784 241 151.619 241 146L241 109C241 102.846 242.395 94.7073 240 89z"/>
<path style="fill:#32394b; stroke:none;" d="M241 89C244.432 107.488 242 128.214 242 147C242 154.858 243.322 163.223 237 169C244.872 170.635 243 156.645 243 152L243 107C243 101.408 244.494 93.6123 241 89z"/>
<path style="fill:#6171a8; stroke:none;" d="M225 91L225 136C225 144.123 227.28 156.354 224.258 163.957C223.158 166.725 220.542 168.521 219 171C227.105 167.347 226 160.817 226 153L226 111C226 104.846 227.395 96.7073 225 91z"/>
<path style="fill:#768fe5; stroke:none;" d="M229 91L229 166C236.799 164.727 235 156.18 235 150L235 106C235.011 98.974 238.308 91.5157 229 91z"/>
<path style="fill:#3b455f; stroke:none;" d="M241 91L241 164C243.189 158.784 242 151.619 242 146L242 110C242 104.113 243.292 96.4625 241 91z"/>
<path style="fill:#535c7d; stroke:none;" d="M223 92L223 163C225.085 158.031 224 151.35 224 146L224 111C224 105.113 225.292 97.4625 223 92z"/>
<path style="fill:#6377b9; stroke:none;" d="M237 92L237 164C239.085 159.031 238 152.35 238 147L238 111C238 105.113 239.292 97.4625 237 92z"/>
<path style="fill:#8da0e1; stroke:none;" d="M187 94C189.174 95.7872 191.653 97.446 192.973 100.019C194.493 102.981 194 106.781 194 110L194 129C194 136.641 195.702 146.654 193.486 153.999C192.325 157.847 189.024 159.423 187.024 162.594C184.89 165.978 186.711 170.364 184.258 173.791C182.106 176.797 176.293 183.017 172.896 184.397C170.133 185.519 166.952 184.434 164.209 185.603C160.866 187.029 159.26 190.952 155.985 192.682C150.342 195.664 141.214 194 135 194L112 194C104.63 194 98.5581 194.54 95 187C92.5226 194.818 101.786 195 107 195C122.432 195.001 139.765 197.234 154.999 194.852C159.955 194.077 161.069 189.382 165.209 187.603C168.603 186.146 172.425 187.476 175.625 185.142C178.437 183.091 184.955 177.696 186.397 174.61C187.76 171.692 186.336 168.173 187.603 165.209C189.048 161.831 193.044 160.549 194.397 156.985C197.195 149.608 195 137.851 195 130L195 107C195 104.061 195.632 100.092 193.972 97.483C192.368 94.9626 189.713 94.3976 187 94z"/>
<path style="fill:#c7d0f0; stroke:none;" d="M185 95C186.872 97.2008 189.367 99.2453 190.397 102.015C192.401 107.402 191 115.308 191 121L191 155C193.085 150.031 192 143.35 192 138C192 126.417 193.654 113.44 191.852 102.004C191.212 97.9449 188.61 96.2421 185 95z"/>
<path style="fill:#b3c0eb; stroke:none;" d="M187 95C192.977 101.777 192 108.383 192 117L192 141C192 145.185 192.582 149.928 191.428 153.996C190.583 156.977 188.437 159.319 187 162C193.593 158.382 193 152.766 193 146L193 110C193 103.751 194.19 97.0858 187 95z"/>
<path style="fill:#7289da; stroke:none;" d="M196 98L196 147C196 154.727 196.59 162.343 187 163C187 166.902 187.947 172.35 185.972 175.871C184.696 178.147 182.215 179.406 180.454 181.255C178.628 183.173 177.375 185.413 174.946 186.682C172.166 188.134 168.854 187.571 166.093 189.012C162.946 190.655 161.343 194.222 157.907 195.436C153.266 197.075 146.867 196 142 196L110 196C105.902 196 98.8964 197.315 95.3171 194.973C92.961 193.431 93.247 190.037 90.6829 188.742C88.3499 187.564 85.471 188.258 83.0046 187.566C77.7308 186.087 77.0562 181.759 77 177L59 177C63.3823 184.647 72.3715 191.296 79.0347 197C81.0908 198.76 82.9397 202.324 85.4144 203.357C88.2521 204.542 92.2389 202.776 95 202L94 198C106.287 195.719 119.532 197 132 197C141.441 197 151.778 195.804 161 198L159 203C162.375 203.028 167.49 204.624 170.61 203.358C173.045 202.37 174.12 199.399 176.213 197.893C179.592 195.461 184.065 196 188 196C187.925 192.373 186.357 187.46 188.194 184.144C191.109 178.88 199.675 176.663 202.397 170.701C203.879 167.456 203 162.499 203 159L197 160L197 118C197 111.846 198.395 103.707 196 98z"/>
<path style="fill:#9fafe6; stroke:none;" d="M193 99L193 156C194.769 151.785 194 146.536 194 142L194 114C194 109.191 194.875 103.469 193 99z"/>
<path style="fill:#4c536a; stroke:none;" d="M217 99C217 118.827 218.486 139.33 216 159C219.089 154.923 218 148.941 218 144L218 114C218 109.191 218.875 103.469 217 99z"/>
<path style="fill:#d8dff5; stroke:none;" d="M190 100L190 156C180.82 157.433 182.305 168.116 179 175C184.064 171.894 181.515 167.466 184.603 163.209C186.551 160.523 189.767 159.403 190.682 155.957C191.734 151.993 191 147.075 191 143L191 117C191 111.65 192.085 104.969 190 100z"/>
<path style="fill:#6171a8; stroke:none;" d="M214 100L214 137C214 141.992 215.308 149.212 213.397 153.895C212.14 156.975 208.71 157.724 207.028 160.39C205.056 163.514 206.786 167.592 204.973 170.816C202.148 175.839 196.053 178.955 193 184C197.368 182.033 205.092 176.301 207.142 171.867C208.28 169.406 207.604 166.583 208.603 164.104C209.922 160.829 213.549 159.475 214.566 155.957C217.262 146.636 215 133.69 215 124C215 116.784 216.802 106.678 214 100z"/>
<path style="fill:#d9dff5; stroke:none;" d="M179 102C180.872 104.201 183.367 106.245 184.397 109.015C185.821 112.843 185 117.978 185 122L185 148C186.661 144.041 186 139.26 186 135C186 126.661 187.745 116.094 185.682 108.005C184.765 104.407 182.306 102.939 179 102z"/>
<path style="fill:#8196de; stroke:none;" d="M177 104C177.406 106.092 177.217 106.02 179 107L178 109C181.996 114.274 180 124.577 180 131C180 135.375 181.397 142.768 178.972 146.61C177.481 148.973 174.462 149.767 173.028 152.213C171.146 155.421 172.846 159.462 170.976 162.675C169.242 165.655 164.27 170.769 160.907 171.682C158.367 172.371 155.587 171.59 153.105 172.603C150.025 173.861 149.276 177.29 146.61 178.972C142.58 181.516 134.6 180 130 180C123.782 180 114.113 181.873 109 178L107 179C106.02 177.217 106.092 177.406 104 177C106.08 182.914 114.82 181 120 181C128.06 181 139.05 182.962 146.787 180.682C150.059 179.718 150.967 175.88 154.105 174.603C157.214 173.339 160.773 174.556 163.791 172.822C166.993 170.982 172.531 165.53 173.566 161.957C174.305 159.409 173.593 156.59 174.603 154.105C175.88 150.967 179.718 150.059 180.682 146.787C181.892 142.681 181 137.252 181 133C181 123.559 182.196 113.222 180 104L177 104z"/>
<path style="fill:#b3c0eb; stroke:none;" d="M180 104C185.922 116.335 183 133.443 183 147C184.552 143.301 184 138.983 184 135L184 114C183.991 109.557 184.147 106.287 180 104z"/>
<path style="fill:#7d92cf; stroke:none;" d="M175 105C175 110.179 176.44 117.921 174.143 122.671C172.874 125.295 169.904 126.511 168.738 129.21C167.107 132.99 168.858 137.283 166.411 140.871C159.435 151.104 147.95 157.889 142 169C147.035 166.178 151.255 160.371 155.27 156.166C157.889 153.423 160.292 150.052 163.205 147.647C165.302 145.917 168.165 145.111 169.682 142.725C171.543 139.799 170.476 136.192 171.742 133.093C172.778 130.556 175.348 129.162 176.4 126.675C178.933 120.692 174.85 113.478 179 108C177.688 106.541 176.769 105.843 175 105z"/>
<path style="fill:#92a4bc; stroke:none;" d="M173 106C173 110.764 174.242 117.626 171.973 121.957C170.452 124.861 167.071 126.215 165.742 129.209C164.508 131.991 165.387 135.199 163.976 137.961C162.562 140.728 159.817 142.816 157.754 145.086C152.207 151.187 145.486 160.279 137.961 163.988C135.185 165.355 131.99 164.514 129.209 165.742C126.313 167.022 124.976 170.235 121.957 171.397C116.437 173.522 109.754 171.299 104 173C108.241 176.213 120.914 176.538 125.61 173.683C127.824 172.337 128.764 169.648 131.213 168.603C134.258 167.304 137.835 168.688 140.791 166.972C145.019 164.519 148.589 158.515 152.075 155C155.007 152.044 157.531 148.31 160.609 145.58C162.371 144.017 164.875 143.554 166.397 141.687C169.075 138.402 167.23 133.798 168.738 130.104C169.977 127.072 173.378 125.74 174.486 122.671C176.213 117.891 175 111.041 175 106L173 106z"/>
<path style="fill:#a0afe6; stroke:none;" d="M181 106C182.702 115.168 182 124.705 182 134C182 137.637 182.798 142.462 181.397 145.895C180.04 149.219 176.004 149.987 174.603 153.213C173.414 155.952 174.383 159.163 173.258 161.957C171.877 165.384 166.81 170.142 163.791 172.262C160.486 174.582 156.666 173.104 153.213 174.603C149.987 176.004 149.219 180.04 145.895 181.397C142.462 182.798 137.637 182 134 182C124.705 182 115.168 182.702 106 181C111.591 185.236 123.172 183 130 183C135.598 183 143.656 184.453 148.896 182.258C151.837 181.026 153.149 177.788 156.104 176.603C159.056 175.419 162.742 176.759 165.441 174.821C167.004 173.698 167.551 171.668 168.718 170.208C170.559 167.908 173.46 166.823 174.427 163.867C175.352 161.042 174.475 157.866 175.603 155.105C176.961 151.781 180.997 151.013 182.397 147.787C184.572 142.771 183 134.403 183 129C183 122.374 185.116 111.434 181 106z"/>
<path style="fill:#c7d0f0; stroke:none;" d="M184 107C184 118.887 186.281 133.414 183.606 144.999C182.596 149.372 179.133 150.848 177.024 154.375C175.406 157.081 176 160.977 176 164C177.042 161.522 176.683 158.571 178.024 156.209C179.814 153.058 183.161 151.657 184.347 147.985C186.97 139.862 185 128.491 185 120C185 115.74 185.661 110.959 184 107z"/>
<path style="fill:#7289da; stroke:none;" d="M177 108C177 113.281 178.393 120.87 176.4 125.816C175.388 128.329 172.804 129.694 171.742 132.184C170.266 135.643 171.55 139.533 169.106 142.725C167.361 145.006 164.492 145.813 162.374 147.647C159.8 149.878 157.655 152.832 155.27 155.285C151.555 159.106 147.391 165.327 142.791 167.973C139.546 169.839 135.646 168.344 132.209 169.317C129.378 170.119 127.726 172.908 124.957 173.968C119.045 176.234 111.227 175 105 175L107 179L109 178C112.796 182.344 125.473 180 131 180C135.471 180 142.489 181.32 146.61 179.397C149.768 177.923 150.614 173.943 154.043 172.603C156.537 171.629 159.287 172.399 161.816 171.682C164.938 170.797 169.312 166.217 170.976 163.486C172.893 160.342 171.245 156.334 173.028 153.105C174.439 150.548 177.388 149.688 178.972 147.367C181.321 143.924 180 136.983 180 133C180 126.429 182.771 112.162 177 108z"/>
<path style="fill:#8da0e1; stroke:none;" d="M181 108L181 148C184.206 140.361 182 128.271 182 120C182 116.017 182.552 111.699 181 108z"/>
<path style="fill:#23272a; stroke:none;" d="M244 118L244 149C244 154.019 244.927 160.11 243.682 164.995C242.604 169.225 238.166 170.367 236.603 174.129C235.432 176.949 236.454 180.173 234.972 182.946C233.413 185.863 229.879 187.054 228.603 190.129C227.33 193.197 228.732 196.833 226.972 199.776C224.303 204.24 217.077 206.962 213.299 210.714C208.704 215.275 205.789 222.093 200.586 226.258C197.474 228.748 193.54 227.187 190.129 228.603C187.055 229.88 185.863 233.413 182.946 234.972C180.173 236.454 176.949 235.432 174.129 236.603C170.367 238.166 169.225 242.604 164.995 243.682C160.11 244.927 154.019 244 149 244L118 244C120.881 248.443 123.814 250.275 124 256L256 256L256 123C251.235 122.644 248.145 120.101 244 118z"/>
<path style="fill:#282d35; stroke:none;" d="M243 123L243 150C243 154.424 243.761 159.699 242.566 163.995C241.414 168.138 237.147 169.413 235.603 173.129C234.43 175.955 235.312 179.157 233.821 181.946C232.282 184.825 228.854 186.103 227.603 189.129C226.334 192.2 227.727 195.829 225.972 198.776C224.173 201.799 220.724 202.783 219 206C221.741 204.424 226.043 202.845 227.397 199.776C228.902 196.361 227.204 192.472 229.603 189.259C231.367 186.896 234.254 185.834 235.397 182.946C236.518 180.112 235.493 176.865 237.028 174.129C238.843 170.892 242.68 169.833 243.682 165.981C245.625 158.512 244 148.707 244 141C244 135.381 245.189 128.216 243 123z"/>
<path style="fill:#8599c8; stroke:none;" d="M0 126L0 130L7 131L7 141L10 141C10 131.961 10.652 126.228 0 126z"/>
<path style="fill:#7289da; stroke:none;" d="M0 130L0 256L52 256C60.6946 256 70.4405 257.221 79 255.625C87.7869 253.986 96.0581 254.2 105 253.985C109.41 253.879 112.663 252.69 116 256C116.683 254.494 116.826 253.685 117 252L94 252C90.5868 252 86.323 252.623 83.1049 251.258C78.9165 249.481 79.0885 243.785 74.8557 242.434C72.3162 241.623 69.5341 242.326 67.0039 241.397C60.8502 239.139 54.215 233.604 54 227C50.2703 227 45.5566 227.744 42.0185 226.397C39.4339 225.412 38.0737 223.272 36.2901 221.32C34.301 219.143 31.4572 217.546 30.0278 214.907C28.2088 211.548 29 206.694 29 203C23.7104 202.181 15.5487 195.106 13.6034 189.985C12.6532 187.483 13.4305 184.653 12.3966 182.184C10.657 178.031 5.72041 176.643 4.43364 171.996C2.44249 164.806 2.99237 152.364 4.22377 145.015C5.06762 139.978 6.99588 136.335 7 131L0 130z"/>
<path style="fill:#677bc1; stroke:none;" d="M5 140C3.23296 147.422 4 155.409 4 163C4 166.472 3.42053 170.668 4.74228 173.96C6.30996 177.865 10.8543 179.247 12.3966 183.093C13.4013 185.599 12.6216 188.442 13.6034 190.957C15.3058 195.317 22.6242 201.736 27 203C23.2233 198.744 17.7301 194.057 15.179 188.996C13.6801 186.023 14.6873 182.423 12.9907 179.594C10.537 175.503 6.85634 173.134 6.14352 168C4.85754 158.737 8.52374 148.821 7 140L5 140z"/>
<path style="fill:#85949a; stroke:none;" d="M8 141L18 145C15.6819 141.032 12.3182 141.039 8 141z"/>
<path style="fill:#758288; stroke:none;" d="M7 142C7 143.797 7.01432 143.521 8 145C11.3952 144.395 13.7204 145.239 17 146L17 152C20.1808 144.329 13.3087 142.057 7 142z"/>
<path style="fill:#4d5663; stroke:none;" d="M9 144L9 146L14 146L14 144L9 144z"/>
<path style="fill:#8599c8; stroke:none;" d="M160 144C157.016 150.218 151.588 154.449 146.934 159.424C144.876 161.625 143.231 164.612 140.791 166.397C135.208 170.479 129.554 165.679 127 174C128.881 172.281 130.543 170.009 133.104 169.317C135.962 168.545 139.108 169.529 141.791 167.972C144.342 166.492 145.931 163.437 147.92 161.325C153.072 155.853 159.266 151.19 162 144L160 144z"/>
<path style="fill:#4f5d8b; stroke:none;" d="M7 145C7 154.247 2.78336 173.929 14 177C6.65857 168.211 6.34854 156.137 9 145L7 145z"/>
<path style="fill:#808f9d; stroke:none;" d="M18 145L18 152C19.0595 149.466 19.0595 147.534 18 145z"/>
<path style="fill:#596aa3; stroke:none;" d="M6 146L6 172C8.477 166.097 8.477 151.903 6 146z"/>
<path style="fill:#445073; stroke:none;" d="M8 146L8 171C11.1209 163.562 8.1047 153.961 10 146L8 146z"/>
<path style="fill:#384158; stroke:none;" d="M17 179C15.3799 175.655 12.1079 173.397 10.7423 169.961C8.33053 163.892 9.52108 153.212 11 147L13 147C14.4409 153.052 12.4519 160.261 14.6034 165.985C15.7076 168.923 18.5077 170.497 19.973 173.17C21.5762 176.094 20.8579 179.437 22.8935 182.271C24.6554 184.724 27.5856 186.454 28.9537 189.169C30.6066 192.449 28.677 194.523 26 196C24.6759 193.313 23.6866 192.324 21 191C22.4865 193.221 24.2937 196.517 27.1119 197.248C31.7544 198.454 31.3774 190.611 30.3974 188.09C29.1068 184.768 25.7147 182.78 24.1481 179.572C22.9173 177.051 23.4825 173.95 21.973 171.594C20.1578 168.762 17.1765 167.313 15.8935 163.996C13.8471 158.705 15 151.586 15 146C13.2417 146.137 11.2256 146.025 10.0231 147.603C8.71636 149.319 9.01468 151.982 9.00077 154C8.96406 159.326 7.38121 168.052 10.0278 172.829C11.5414 175.562 14.4818 177.328 17 179z"/>
<path style="fill:#434f73; stroke:none;" d="M15 146L15 164C16.9516 159.349 16.9516 150.651 15 146z"/>
<path style="fill:#4e5d8d; stroke:none;" d="M16 146L16 164C17.9516 159.349 17.9516 150.651 16 146z"/>
<path style="fill:#2c333f; stroke:none;" d="M11 147C9.05497 153.58 7.36413 170.123 14 174L13 169L18 171C12.9057 162.901 15.5529 155.637 13 147L11 147z"/>
<path style="fill:#869bd0; stroke:none;" d="M19 150C21.3233 157.875 29.2137 162.347 30 171C32.4533 170.888 34.6457 170.687 37 170C34.7379 164.939 30.9536 162.632 27.2199 158.795C24.2842 155.777 22.4722 152.537 19 150z"/>
<path style="fill:#b3bfeb; stroke:none;" d="M174 167C176.397 163.492 175.094 159.844 176.602 156.106C177.6 153.63 179.882 152.391 182 151C173.635 149.634 174.696 161.494 174 167z"/>
<path style="fill:#56679d; stroke:none;" d="M17 152C17 159.919 15.7569 166.331 24 170C22.6165 167.343 19.8989 165.609 18.7415 162.871C17.2752 159.403 18.4601 155.48 17 152z"/>
<path style="fill:#6478bd; stroke:none;" d="M18 152C18 156.734 16.7383 162.989 21 166C19.3261 161.407 19.8206 156.339 18 152z"/>
<path style="fill:#7188d9; stroke:none;" d="M19 153C19.0004 156.371 18.3591 160.724 20.179 163.737C21.7759 166.381 25.1532 167.249 26.3966 170.188C29.0647 176.495 25.8141 181.699 35 182C27.5689 177.947 31.1041 174.128 29.6559 167.039C28.594 161.842 23.4687 155.576 19 153z"/>
<path style="fill:#8ea0bf; stroke:none;" d="M24 153C25.3055 159.452 32.2351 165.208 38 168C34.9403 162.409 29.4102 156.391 24 153z"/>
<path style="fill:#d8dff5; stroke:none;" d="M177 155C176.971 163.472 171.616 171.528 163.957 175.682C160.268 177.683 156.456 176.212 154 180C157.903 178.346 162.194 178.583 165.985 176.91C173.932 173.404 180.592 163.56 177 155z"/>
<path style="fill:#515a77; stroke:none;" d="M215 156C213.064 158.298 209.783 160.429 208.603 163.209C207.121 166.7 208.099 170.404 205.856 173.791C202.589 178.724 196.04 181.378 193.024 186.376C190.939 189.831 193.126 194.443 190.397 197.682C187.475 201.15 182.863 199.06 179.209 200.603C176.43 201.776 174.296 205.067 172 207C177.922 208.229 182.089 195.914 188.971 203.157C189.671 203.894 189.737 205.134 190 206C192.661 202.973 194.216 200.758 198 199C184.591 190.023 203.141 181.973 208.258 174.791C210.34 171.87 209.449 168.257 210.988 165.17C212.665 161.805 215.929 160.025 215 156z"/>
<path style="fill:#c5cff0; stroke:none;" d="M183 171L187 161C182.849 163.289 183.016 166.579 183 171z"/>
<path style="fill:#9dade5; stroke:none;" d="M185 163C184.987 167.632 184.178 171.546 183 176C186.288 172.491 186.859 167.429 185 163z"/>
<path style="fill:#445074; stroke:none;" d="M16 164C17.1298 167.933 19.9734 169.087 21.973 172.375C23.3217 174.593 22.9912 177.517 23 180C26.1732 172.438 21.3102 168.557 16 164z"/>
<path style="fill:#b3c0eb; stroke:none;" d="M184 164C183.837 170.941 178.757 180.61 171.896 183.397C169.133 184.519 165.952 183.435 163.209 184.603C159.911 186.008 158.461 189.74 154.985 191.106C151.322 192.546 146.853 192 143 192L122 192C113.385 192 101.771 194.574 96 187C94.2363 195.646 111.943 193 117 193L143 193C147.112 193 151.992 193.691 155.985 192.566C160.328 191.343 161.755 186.457 166.043 185.318C168.561 184.649 171.349 185.441 173.791 184.397C180.488 181.531 186.928 170.992 184 164z"/>
<path style="fill:#5b6da8; stroke:none;" d="M236 164C230.784 169.538 230 172.353 230 180C231.19 177.165 230.54 173.834 232.027 171.104C233.542 168.323 236.439 166.785 238 164L236 164z"/>
<path style="fill:#839098; stroke:none;" d="M38 166C38 167.797 38.0143 167.521 39 169C46.0855 166.203 46.4703 172.128 52 175C49.1107 167.326 46.4551 164.455 38 166z"/>
<path style="fill:#6579bd; stroke:none;" d="M22 166C23.1718 167.978 24.7921 169.96 25.4907 172.171C26.707 176.02 25.3653 179.432 29 182C26.8424 176.08 28.5054 168.726 22 166z"/>
<path style="fill:#768189; stroke:none;" d="M40 170C42.0417 169.105 43.8277 168.464 46 168C43.1196 166.902 41.6498 167.445 40 170z"/>
<path style="fill:#b1beeb; stroke:none;" d="M167 174C169.245 171.594 171.086 169.584 174 168C169.672 166.853 167.795 170.153 167 174z"/>
<path style="fill:#3b445f; stroke:none;" d="M233 181C235.422 175.231 234.039 171.915 240 168C232.23 166.731 233 175.778 233 181z"/>
<path style="fill:#6475af; stroke:none;" d="M37 168C37 171.892 36.1515 176.963 37.5139 180.66C38.9778 184.633 45.3712 189.235 49 191C47.3434 186.166 43.9515 182.474 39 181L39 168L37 168z"/>
<path style="fill:#61686e; stroke:none;" d="M41 171C43.1209 170.754 44.8742 170.769 47 171C45.0419 168.006 42.9581 168.006 41 171z"/>
<path style="fill:#6579bd; stroke:none;" d="M229 168L229 180C230.551 176.304 230.059 171.951 231 168L229 168z"/>
<path style="fill:#282d35; stroke:none;" d="M13 169C13.5097 173.564 15.9875 175.322 17.9877 179.17C19.2384 181.576 18.7438 184.352 19.7276 186.83C21.0498 190.161 24.0941 192.964 26 196C35.9969 192.682 23.9046 184.141 21.858 179.715C20.6998 177.209 21.498 173.954 19.3981 171.899C17.7565 170.292 15.1081 169.685 13 169z"/>
<path style="fill:#576492; stroke:none;" d="M39 169C39 172.896 37.8902 178.283 41 181C40.5064 177.095 40.5134 172.598 39 169z"/>
<path style="fill:#4f5e8c; stroke:none;" d="M24 170L24 180C25.3457 176.793 25.3457 173.207 24 170z"/>
<path style="fill:#5a6ca5; stroke:none;" d="M25 170L25 180C26.3457 176.793 26.3457 173.207 25 170z"/>
<path style="fill:#778fe4; stroke:none;" d="M34 170L30 171C29.0251 176.333 28.6467 180.493 35 181C35 177.3 35.4403 173.432 34 170z"/>
<path style="fill:#6d82ce; stroke:none;" d="M36 170C34.6881 174.438 35.3076 178.851 33 183C35.5327 187.746 35 192.728 35 198C39.905 198.791 41.8501 202.767 46 205C43.713 200.738 38.1075 197.167 36.6929 192.897C35.988 190.77 36.7353 188.155 37 186L44 188C42.4535 185.044 39.3026 183.579 37.858 180.66C36.2227 177.357 37.4237 173.393 36 170z"/>
<path style="fill:#4f587b; stroke:none;" d="M40 170L40 178C41.1614 175.23 41.1614 172.77 40 170z"/>
<path style="fill:#4f5350; stroke:none;" d="M42 170C44.938 173.65 47.5946 177.202 52 179C50.3116 176.328 48.8241 174.05 48 171L42 170z"/>
<path style="fill:#323a4b; stroke:none;" d="M235 170C233.252 175.912 234.172 180.669 229 185C235.891 186.431 235.141 174.387 237 170L235 170z"/>
<path style="fill:#484f67; stroke:none;" d="M41 171C41.0005 175.192 40.1753 179.52 44 182C42.971 178.07 42.342 175.056 43 171L41 171z"/>
<path style="fill:#6a7ec3; stroke:none;" d="M218 171C217.998 174.269 218.387 177.964 216.821 180.961C212.876 188.51 202.885 191.902 200 200C205.3 197.142 208.776 192.282 213.085 188.181C214.881 186.471 217.364 185.023 218.397 182.675C219.875 179.313 219.133 174.643 220 171L218 171z"/>
<path style="fill:#455176; stroke:none;" d="M232 171C231.996 176.112 231.195 179.429 229 184C233.543 181.213 233.991 175.745 232 171z"/>
<path style="fill:#3e3f40; stroke:none;" d="M43 172C41.8994 176.044 42.951 179.034 44 183C59.0713 187.264 63.1239 210.731 80 212C77.8389 205.331 74.0169 202.306 69.2593 197.421C66.2043 194.283 64.0032 190.478 60.8295 187.425C55.4636 182.264 49.1614 178.255 45 172L43 172z"/>
<path style="fill:#6273ab; stroke:none;" d="M217 172C216.969 175.735 216.467 179.305 216 183C218.258 179.695 218.549 175.693 217 172z"/>
<path style="fill:#7992ea; stroke:none;" d="M221 181C222.069 180.915 223.637 181.052 224.611 180.397C230.607 176.363 222.14 168.027 221.059 176.975C220.901 178.277 221.005 179.696 221 181z"/>
<path style="fill:#626a70; stroke:none;" d="M48 173C49.9933 177.186 53.1109 179.565 57 182C55.3503 177.544 52.0372 175.307 48 173z"/>
<path style="fill:#8191ad; stroke:none;" d="M51 173C53.1504 175.228 55.5035 177.164 58 179C56.8356 175.127 54.8334 174.012 51 173z"/>
<path style="fill:#8c9fc0; stroke:none;" d="M57 173C62.3901 177.084 71.4844 174.503 78 177L78 173L57 173z"/>
<path style="fill:#adbbc3; stroke:none;" d="M80 176C86.8753 173.494 93.7763 174 101 174C96.0476 171.922 83.1394 171.158 80 176z"/>
<path style="fill:#bbc6cc; stroke:none;" d="M83 174C89.8592 176.878 98.8062 172.008 103 180C106.385 171.249 87.8611 174 83 174z"/>
<path style="fill:#c1cbef; stroke:none;" d="M163 183C171.997 186.775 175.725 179.895 182 175C176.861 174.313 175.658 179.733 171.791 181.972C169.252 183.443 165.816 182.998 163 183z"/>
<path style="fill:#707c91; stroke:none;" d="M52 175C53.4498 176.608 54.0514 177.064 56 178C54.7034 176.08 54.2089 175.684 52 175z"/>
<path style="fill:#8398cb; stroke:none;" d="M57 175C62.2461 178.584 69.9084 176.55 76 178C74.8497 172.632 61.6931 175 57 175z"/>
<path style="fill:#b8c4de; stroke:none;" d="M79 175L79 182L81 182C81.322 179.416 81.9729 177.398 83 175L79 175z"/>
<path style="fill:#c9d2d6; stroke:none;" d="M82 178C89.1903 174.953 96.1094 175.536 103 179C99.8263 173.567 85.5154 172.578 82 178z"/>
<path style="fill:#5b6895; stroke:none;" d="M199 181C201.305 179.15 203.388 177.39 206 176C202.085 174.963 200.244 177.54 199 181z"/>
<path style="fill:#5b6ca6; stroke:none;" d="M9 176C10.6865 177.656 11.7463 178.251 14 179C12.535 176.878 11.5431 176.526 9 176z"/>
<path style="fill:#9dade6; stroke:none;" d="M78 176C78.0353 185.976 83.2401 186 92 186C88.9205 184.707 85.2052 185.494 82.3441 183.566C79.6863 181.776 79.2545 178.685 78 176z"/>
<path style="fill:#e4e9ea; stroke:none;" d="M83 179C89.5089 177.45 95.7228 177.712 102 180C98.9189 174.726 86.4382 173.697 83 179z"/>
<path style="fill:#c7d0f0; stroke:none;" d="M107 184C110.959 185.661 115.74 185 120 185C128.778 185 140.433 187.033 148.895 184.682C152.185 183.768 152.931 180.55 155.39 178.603C157.818 176.68 161.091 177.01 164 177C154.92 173.19 152.667 181.835 144.999 183.606C133.414 186.281 118.887 184 107 184z"/>
<path style="fill:#7f94dd; stroke:none;" d="M94 187L81 187C84.0234 188.269 87.8973 187.344 90.6829 189.179C93.3201 190.916 92.8244 194.699 96.1481 195.682C103.617 197.891 114.22 196 122 196L146 196C149.789 196 154.204 196.607 157.907 195.697C161.807 194.737 163.585 190.755 167.04 189.012C169.816 187.612 173.123 188.189 175.871 186.682C179.683 184.592 184.095 179.281 187 176C181.137 177.743 179.459 181.924 174.791 185.142C171.539 187.383 167.728 186.079 164.375 187.603C161.028 189.125 159.613 193.046 155.996 194.397C152.434 195.726 147.739 195 144 195L119 195C109.891 195 96.9098 198.15 94 187z"/>
<path style="fill:#3e3f40; stroke:none;" d="M195 195C200.523 193.049 211.013 181.841 212 176C203.417 177.971 195.266 186.049 195 195z"/>
<path style="fill:#465379; stroke:none;" d="M14 177C15.1876 180.806 15.1731 185.313 16.6034 188.91C18.6606 194.085 25.7314 199.737 31 201C31 204.594 30.2362 209.244 31.5139 212.657C32.4522 215.163 35.0021 216 36.9506 217.548C43.3281 222.613 45.7083 224 54 224C51.4242 222.919 48.6279 223.401 46.0394 222.397C42.166 220.894 38.7604 216.148 36.2245 213C32.8972 208.869 31.8488 202.009 39 204C37.406 201.064 33.8812 199.864 32.6034 196.856C29.6124 189.816 33.6403 184.191 25 180C25.9914 183.39 28.4086 185.043 29.9769 188.09C32.305 192.613 29.8687 199.603 24.5795 194.872C22.1082 192.662 19.0111 189.849 17.7685 186.7C16.276 182.918 17.0956 180.031 14 177z"/>
<path style="fill:#303746; stroke:none;" d="M17 177L19 191L23 191C19.7359 186.518 20.0903 181.078 17 177z"/>
<path style="fill:#8a9de1; stroke:none;" d="M77 177C77.0085 179.414 76.6093 182.564 78.0278 184.682C80.5433 188.439 88.1134 187 92 187C88.0538 185.344 82.7785 186.958 79.6026 183.428C78.0517 181.705 77.8999 179.054 77 177z"/>
<path style="fill:#d8def6; stroke:none;" d="M81 177L81 183L93 183C87.8666 180.845 84.4922 182.216 81 177z"/>
<path style="fill:#d9dff5; stroke:none;" d="M174 177C170.794 182.715 167.049 180.291 162.184 183.027C159.328 184.634 158.025 187.964 154.907 189.258C150.137 191.237 143.079 190 138 190L100 190C104.969 192.085 111.65 191 117 191L143 191C147.075 191 151.993 191.734 155.957 190.682C159.403 189.767 160.523 186.551 163.209 184.603C168.434 180.813 172.79 184.06 176 177L174 177z"/>
<path style="fill:#484d5d; stroke:none;" d="M198 198C197.518 195.636 197.364 195.482 195 195C195.506 187.46 201.406 182.515 207 178C199.287 176.934 185.412 195.899 198 198z"/>
<path style="fill:#6273af; stroke:none;" d="M56 178C57.825 184.614 65.8217 188.953 70.6644 193.593C73.6978 196.5 74.8862 199.505 79 201C74.7878 192.252 64.1833 183.101 56 178z"/>
<path style="fill:#5869a0; stroke:none;" d="M14 179C14.0011 188.88 19.1295 200.799 30 203C30 211.106 29.7712 216.368 38 220C36.355 217.239 33.2527 215.56 31.858 212.674C30.2402 209.327 31 204.619 31 201C25.6002 198.891 17.9199 192.514 15.7423 186.985C14.7185 184.386 15.0826 181.574 14 179z"/>
<path style="fill:#39425a; stroke:none;" d="M17 179L17 188C18.2561 185.006 18.2561 181.994 17 179z"/>
<path style="fill:#4b5268; stroke:none;" d="M52 179C54.5232 183.403 58.6464 186.484 63 189C60.7535 184.399 56.6359 181.08 52 179z"/>
<path style="fill:#d9dff5; stroke:none;" d="M102 179C104.031 186.151 109.555 186 116 186L148 186C136.277 181.081 120.893 188.815 109.015 184.397C106.245 183.367 104.201 180.872 102 179z"/>
<path style="fill:#4f5d8c; stroke:none;" d="M15 180L15 188C16.1614 185.23 16.1614 182.77 15 180z"/>
<path style="fill:#b3c0eb; stroke:none;" d="M104 180C106.61 184.733 111.098 184 116 184L147 184C143.041 182.339 138.26 183 134 183C123.807 183 113.308 184.468 104 180z"/>
<path style="fill:#5c6eaa; stroke:none;" d="M228 180C226.198 181.914 223.608 183.595 222.603 186.104C221.319 189.309 222.544 192.803 220.4 195.791C214.344 204.233 204.7 211.457 197.406 218.895C193.844 222.528 190.306 220.912 186.104 222.603C182.994 223.854 181.296 227.124 180 230C183.022 228.306 184.777 224.873 188.043 223.603C191.223 222.367 194.728 223.6 197.625 221.4C201.968 218.102 205.518 213.224 209.371 209.371C213.235 205.507 219.241 201.544 221.973 196.791C223.523 194.094 222.508 190.86 223.603 188.043C224.873 184.777 228.306 183.022 230 180L228 180z"/>
<path style="fill:#8da0e1; stroke:none;" d="M108 181C112.215 182.769 117.465 182 122 182L148 182C143.785 180.231 138.536 181 134 181L108 181z"/>
<path style="fill:#ffffff; stroke:none;" d="M153 187C156.856 186.347 158.081 184.744 159 181C155.579 182.067 154.464 183.773 153 187z"/>
<path style="fill:#6478bb; stroke:none;" d="M29 182C30.5394 184.179 31.3554 184.573 34 185L34 196C36.3373 190.43 35.7586 183.078 29 182z"/>
<path style="fill:#515a77; stroke:none;" d="M42 182C47.8557 188.856 54.379 195.207 60.939 201.371C64.396 204.62 66.3091 207.573 71 209C68.085 204.32 63.1873 200.618 59.2847 196.715C54.1112 191.542 49.0768 184.412 42 182z"/>
<path style="fill:#5a6793; stroke:none;" d="M178 199C181.364 200.412 188.581 201.266 190.972 197.682C192.838 194.886 191.388 191.119 192.602 188.106C193.599 185.63 195.882 184.391 198 183C189.407 181.597 192.581 191.258 189.821 195.772C187.407 199.72 181.965 198.997 178 199z"/>
<path style="fill:#474b5c; stroke:none;" d="M46 183C48.0032 185.997 49.8139 188.296 53 190C51.0983 186.744 49.4005 184.66 46 183z"/>
<path style="fill:#b1beec; stroke:none;" d="M81 183C84.4845 185.64 90.6434 185.976 95 187C92.1041 182.901 85.633 183.86 81 183z"/>
<path style="fill:#c5cff2; stroke:none;" d="M83 183C86.1633 184.327 89.5856 184 93 184C89.8367 182.673 86.4144 183 83 183z"/>
<path style="fill:#6373ad; stroke:none;" d="M203 195C207.969 192.067 211.441 187.502 216 184C210.637 183.285 205.268 190.674 203 195z"/>
<path style="fill:#505f8e; stroke:none;" d="M223 196C225.073 191.073 224.43 187.766 229 184C222.296 183.092 223.001 191.424 223 196z"/>
<path style="fill:#3b445f; stroke:none;" d="M225 197C227.422 191.231 226.039 187.915 232 184C224.23 182.731 225 191.778 225 197z"/>
<path style="fill:#596690; stroke:none;" d="M59 184C61.7423 187.155 64.2189 190.16 68 192C65.596 188.17 63.4399 185.273 59 184z"/>
<path style="fill:#6579bd; stroke:none;" d="M221 184L221 196C222.551 192.304 222.059 187.951 223 184L221 184z"/>
<path style="fill:#4b5984; stroke:none;" d="M32 185C32 188.794 30.7848 195.192 33.027 198.455C38.7661 206.808 53.1667 213.038 54 224C47.2135 223.999 43.3995 223.587 39 218C37.6731 227.109 48.1452 223.149 52.6975 226.027C54.6229 227.244 55.2779 229.621 56.7083 231.291C59.1128 234.099 62.0765 236.775 65 239C63.8528 234.644 58.4648 231.797 57.9213 227.954C56.8981 220.722 69.4572 226.097 72 227C68.8853 221.059 63.0351 225.062 58.6335 221.411C51.7974 215.742 45.8866 207.997 39.9105 201.425C38.2051 199.55 35.3942 198.86 34.027 196.698C31.9026 193.337 33.5258 188.636 32 185z"/>
<path style="fill:#596aa3; stroke:none;" d="M33 185C33 192.302 31.6297 198.153 40 200C38.4457 198.076 35.7968 197.245 34.7415 194.853C33.3664 191.734 34.3229 188.153 33 185z"/>
<path style="fill:#c7d0f0; stroke:none;" d="M95 185C97.803 193.148 104.68 192 112 192L155 192C150.785 190.231 145.536 191 141 191L115 191C110.978 191 105.843 191.821 102.015 190.397C99.2453 189.367 97.2008 186.872 95 185z"/>
<path style="fill:#748bde; stroke:none;" d="M37 186C36.5478 188.446 35.6492 191.363 36.6181 193.791C37.6537 196.386 40.6183 198.031 42.4066 200.09C47.1419 205.541 51.2774 212.747 59 213C59.8324 220.386 64.6908 219.999 71 220C69.5254 209.365 56.1997 200.682 48.8387 193.451C44.8889 189.572 42.7958 186.727 37 186z"/>
<path style="fill:#6272aa; stroke:none;" d="M190 186L190 196C191.346 192.793 191.346 189.207 190 186z"/>
<path style="fill:#7288d9; stroke:none;" d="M205 197C208.993 197.636 210.364 199.007 211 203C217.667 197.786 220.584 194.537 219 186C212.607 186.482 207.883 191.502 205 197z"/>
<path style="fill:#303747; stroke:none;" d="M227 186C225.288 191.789 226.86 197.491 221 201C228.429 202.976 227.05 190.602 229 186L227 186z"/>
<path style="fill:#455176; stroke:none;" d="M224 187C223.982 191.958 222.783 195.438 221 200C225.399 197.141 225.97 191.694 224 187z"/>
<path style="fill:#474c5b; stroke:none;" d="M63 189C66.0289 195.905 71.5163 201.253 78 205C74.7656 198.931 68.6642 192.886 63 189z"/>
<path style="fill:#697cbe; stroke:none;" d="M46 190C47.6313 193.331 50.1103 194.846 52.6335 197.455C57.84 202.839 62.9313 210.145 70 213C65.4386 204.254 54.777 194.371 46 190z"/>
<path style="fill:#474c5b; stroke:none;" d="M53 190C55.2563 193.289 57.4647 196.112 61 198C58.8852 194.353 56.8314 191.825 53 190z"/>
<path style="fill:#5f6ea2; stroke:none;" d="M49 191C51.0653 193.543 53.2231 195.255 56 197C54.3375 193.624 52.5549 192.22 49 191z"/>
<path style="fill:#535c7d; stroke:none;" d="M67 192C71.2686 197.424 76.2596 205.307 82.3002 208.821C85.2327 210.527 88.8571 209.52 91.8156 211.178C94.5636 212.719 95.9045 215.819 99.0934 216.682C104.752 218.215 112.157 217 118 217L156 217C151.531 215.125 145.809 216 141 216L114 216C109.949 216 105.026 216.745 101.09 215.682C97.4354 214.695 95.9807 210.94 92.8264 209.179C88.9103 206.993 84.9024 208.317 81.375 204.895C76.8646 200.52 73.3674 193.347 67 192z"/>
<path style="fill:#9fafe6; stroke:none;" d="M99 193C104.216 195.189 111.381 194 117 194L156 194C150.784 191.811 143.619 193 138 193L99 193z"/>
<path style="fill:#677cc2; stroke:none;" d="M196 221C204.2 213.246 211.519 203.17 221 197C216.955 196.066 214.518 199.279 211.834 202.001C206.371 207.541 197.873 213.186 196 221z"/>
<path style="fill:#7188da; stroke:none;" d="M94 198L95 202L89 203C91.1311 203.934 93.6456 204.13 95.5332 205.602C97.9436 207.481 99.0884 210.772 102.209 211.682C107.452 213.211 114.561 212 120 212C130.517 212 142.535 213.634 152.895 211.852C156.185 211.286 157.102 208.588 159.39 206.568C161.662 204.562 164.103 204.195 167 204C164.387 202.902 161.836 203.007 159 203L161 198C153.283 195.719 144.018 197 136 197C122.576 197 107.087 194.884 94 198z"/>
<path style="fill:#778fe5; stroke:none;" d="M204 197C204.373 201.892 206.108 203.627 211 204C210.826 198.69 209.31 197.174 204 197z"/>
<path style="fill:#3f4a69; stroke:none;" d="M224 197L197 224C200.278 224.769 201.288 221.52 203.386 219.37C208.391 214.24 213.692 209.439 218.593 204.198C220.764 201.876 224.815 200.475 224 197z"/>
<path style="fill:#6273ab; stroke:none;" d="M100 214C104.215 215.769 109.464 215 114 215L142 215C146.512 215 152.658 216.05 156.895 214.258C159.921 212.978 160.75 209.683 163.39 208.027C166.221 206.251 169.881 207.532 172.895 206.258C175.921 204.978 176.75 201.683 179.39 200.027C181.804 198.512 185.281 199.002 188 199C184.524 197.541 178.741 197.139 175.633 199.742C173.496 201.531 172.644 204.277 169.895 205.397C166.852 206.636 163.279 205.355 160.39 207.179C157.421 209.053 156.66 212.699 152.957 213.682C147.835 215.042 141.277 214 136 214L100 214z"/>
<path style="fill:#7288d9; stroke:none;" d="M203 198C196.751 202.996 189.022 208.361 186 216C189.037 214.472 191.609 213.366 195 213L195 219L189 219C197.184 222.406 204.425 209.611 210 205C206.902 202.988 205.012 201.098 203 198z"/>
<path style="fill:#5f6ea2; stroke:none;" d="M57 199C59.0653 201.543 61.2231 203.255 64 205C62.3375 201.624 60.5549 200.22 57 199z"/>
<path style="fill:#4e5d8b; stroke:none;" d="M199 221C206.981 214.597 213.251 206.551 221 200C217.363 199.499 215.978 202.37 213.629 204.806C208.859 209.754 201.353 214.434 199 221z"/>
<path style="fill:#5d6fab; stroke:none;" d="M40 200C41.667 206.954 49.4314 214.434 56 217C52.1069 210.939 45.6813 204.461 40 200z"/>
<path style="fill:#687bbd; stroke:none;" d="M192 208C194.827 205.59 197.932 203.068 200 200C195.684 201.481 193.481 203.684 192 208z"/>
<path style="fill:#6373ac; stroke:none;" d="M79 201C81.5603 208.287 86.1497 205.418 91.9838 207.602C94.6917 208.616 96.2824 210.819 98 213C99.0722 204.99 89.7518 207.169 85.091 205.401C82.7916 204.529 80.9202 202.477 79 201z"/>
<path style="fill:#4c536a; stroke:none;" d="M162 212C165.932 210.334 170.084 210.611 173.961 209.11C177.427 207.769 179.928 203.573 183.875 203.577C185.955 203.579 188.038 205.387 190 206C189.171 201.033 183.821 199.331 179.375 202.027C176.895 203.531 175.618 206.316 172.957 207.682C168.986 209.72 164.628 207.946 162 212z"/>
<path style="fill:#363f55; stroke:none;" d="M33 210C33.8743 207.948 33.9528 206.253 34 204C36.5128 205.106 38.6774 206.523 41 208C37.4702 200.681 33.0871 202.651 33 210z"/>
<path style="fill:#323a4b; stroke:none;" d="M219 202C217.213 204.798 215.615 206.956 213 209C217.295 209.891 219.214 205.326 221 202L219 202z"/>
<path style="fill:#687dc4; stroke:none;" d="M29 203C29 208.471 27.5759 215.009 33 218C30.2212 212.949 31.0864 207.972 29 203z"/>
<path style="fill:#444852; stroke:none;" d="M97 217L98 220L92 221C98.1939 223.599 107.314 222 114 222L147 222C151.904 222 158.315 223.06 162.961 221.262C165.794 220.165 167.616 217.668 170.09 216.029C176.823 211.566 185.368 213.404 187 203C180.7 203.187 178.441 207.04 172.985 209.11C169.806 210.317 166.192 209.57 163.184 211.318C160.397 212.938 158.975 216.184 155.907 217.397C150.912 219.373 143.309 218 138 218C124.582 218 110.219 219.454 97 217z"/>
<path style="fill:#2a303a; stroke:none;" d="M34 204C34.0081 207.169 34.1004 209.959 35 213L36 206C40.7151 210.676 45.6048 215.011 50 220L43 219C46.2087 222.274 50.3679 222.917 52 218C45.9209 213.543 41.5126 206.108 34 204z"/>
<path style="fill:#6b80ca; stroke:none;" d="M46 205C48.7024 210.29 55.5184 219.081 61.1705 221.397C63.9674 222.542 67.1706 221.524 69.8951 223.028C72.4524 224.439 73.3123 227.387 75.6335 228.972C78.0359 230.613 81.345 229.721 83.9961 230.742C87.4736 232.082 89.4686 235.714 93.0895 236.682C97.0343 237.737 101.942 237 106 237L133 237L155 237C158.017 236.999 161.938 237.544 164.606 235.821C167.008 234.27 167.527 231.587 168 229C175.574 229 182.359 229.977 184 221L196 221C191.912 219.236 188.381 219.348 185 216C181.204 219.584 176.975 219 172 219L172 221L181 221C180.068 226.708 176.129 226.954 171 227L171 223C163.983 228.793 154.645 227 146 227L90 227C96.6777 229.802 106.784 228 114 228L167 228C163.404 238.611 152.153 236 143 236L109 236C104.591 236 98.3196 237.121 94.1844 235.397C91.1486 234.131 89.7796 230.735 86.9066 229.179C80.7347 225.837 75.2281 229.155 74 220L83 220C80.5443 218.967 77.5843 219.334 75.2608 217.977C73.2576 216.807 71.7444 214.52 70 213L71 220C64.8633 219.995 60.3951 219.833 59 213C52.7999 212.528 51.1519 207.532 46 205z"/>
<path style="fill:#444751; stroke:none;" d="M78 205C78.322 207.584 78.9729 209.602 80 212C77.1937 211.574 76.0523 210.965 74 209C72.3378 215.063 84.7644 214.871 89 217L88 212L94 213C91.4196 209.348 87.8807 210.761 84.091 209.262C81.8188 208.364 79.9368 206.44 78 205z"/>
<path style="fill:#23272a; stroke:none;" d="M36 206C34.0586 213.994 42.8249 219.607 50 220C46.4497 214.371 41.4277 209.808 36 206z"/>
<path style="fill:#515977; stroke:none;" d="M163 223C166.549 221.905 167.96 219.075 171.104 217.317C173.862 215.775 177.151 216.427 179.91 214.976C183.545 213.065 186.564 209.366 190 207C185.504 206.045 183.282 210.201 179.83 212.436C177.367 214.031 174.676 213.659 172.015 214.563C168.08 215.9 164.942 219.487 163 223z"/>
<path style="fill:#5a6793; stroke:none;" d="M83 207C85.8475 208.198 89.1438 207.691 91.9097 209.179C95.0641 210.876 96.6095 214.683 100.174 215.682C105.48 217.17 112.511 216 118 216L156 216C151.531 214.125 145.809 215 141 215C129.089 215 115.763 216.69 104.001 214.852C99.3586 214.126 97.7341 210.072 93.9105 208.028C90.7674 206.348 86.4448 207 83 207z"/>
<path style="fill:#5b6896; stroke:none;" d="M162 207C165.163 208.327 168.586 208 172 208C168.837 206.673 165.414 207 162 207z"/>
<path style="fill:#374057; stroke:none;" d="M41 208C42.8266 210.218 44.5144 211.545 47 213C45.4831 210.082 44.1074 209.078 41 208z"/>
<path style="fill:#555f83; stroke:none;" d="M156 215C160.094 215.849 161.018 211.86 164.209 210.027C166.511 208.705 169.45 209.009 172 209C164.617 205.902 161.169 210.646 156 215z"/>
<path style="fill:#687bbc; stroke:none;" d="M74 218C76.7098 219.14 79.9528 218.688 82.4853 220.318C85.3498 222.161 86.7016 225.713 90.1736 226.682C94.916 228.006 101.101 227 106 227L140 227C147.659 227 159.767 229.306 166.895 226.397C169.975 225.14 170.724 221.71 173.39 220.028C176.2 218.255 179.739 219.695 182.674 218.397C186.379 216.758 188.851 211.629 192 209C186.523 208.205 185.083 213.345 181.505 216.262C178.762 218.498 175.354 217.218 172.39 218.603C168.075 220.62 167.52 225.271 161.999 225.891C149.644 227.279 136.436 226 124 226C114.668 226 104.229 227.321 95.0147 225.852C90.677 225.16 89.2291 221.312 85.6998 219.318C82.311 217.403 77.744 218 74 218z"/>
<path style="fill:#555f84; stroke:none;" d="M71 209C71.5471 210.875 72.11 212.255 73 214C73.5158 211.543 72.9944 210.498 71 209z"/>
<path style="fill:#323a4b; stroke:none;" d="M211 210C209.213 212.798 207.615 214.956 205 217C209.295 217.891 211.214 213.326 213 210L211 210z"/>
<path style="fill:#404145; stroke:none;" d="M88 212C89.1028 217.695 91.8849 221.623 98 220C96.3611 214.544 93.628 212.512 88 212z"/>
<path style="fill:#313849; stroke:none;" d="M36 213C38.4969 216.584 41.1234 219.93 45 222C42.6736 217.978 40.2407 214.994 36 213z"/>
<path style="fill:#373f56; stroke:none;" d="M47 213C48.3241 215.687 49.3134 216.676 52 218C50.0718 221.498 47.8776 221.875 44 222C47.1633 223.327 50.5856 223 54 223C53.612 217.959 51.0813 215.732 47 213z"/>
<path style="fill:#7891e9; stroke:none;" d="M186 219L195 219L195 213C190.326 213.256 187.394 214.306 186 219z"/>
<path style="fill:#4c536a; stroke:none;" d="M74 214C77.3143 216.511 81.2282 215.607 84.9815 217.228C88.0448 218.552 89.9161 221.823 93.1289 222.686C99.9348 224.513 108.967 223 116 223L163 223C157.293 220.605 149.154 222 143 222C127.862 222 112.089 223.287 97.0154 221.941C92.3559 221.525 90.7557 217.668 86.9568 215.573C83.063 213.425 78.2863 214 74 214z"/>
<path style="fill:#282d35; stroke:none;" d="M210 214C207.003 217.733 201.112 223.705 196.896 225.976C194.195 227.43 190.899 226.464 188.259 228.027C185.415 229.711 184.22 232.974 180.981 234.258C177.805 235.517 174.234 234.546 171.184 236.318C168.076 238.123 166.629 241.721 162.96 242.682C158.984 243.723 154.084 243 150 243L123 243C126.699 244.552 131.017 244 135 244L155 244C158.679 244 163.462 244.774 166.946 243.397C170.131 242.138 171.24 238.649 174.129 237.028C177.144 235.337 180.856 236.663 183.871 234.972C186.456 233.522 187.544 230.478 190.129 229.028C192.845 227.504 196.026 228.444 198.892 227.566C202.467 226.472 210.74 217.54 210 214z"/>
<path style="fill:#4f5d8b; stroke:none;" d="M35 216C36.2228 217.195 36.42 217.316 38 218C36.7772 216.805 36.58 216.684 35 216z"/>
<path style="fill:#4c536a; stroke:none;" d="M99 217C104.216 219.189 111.381 218 117 218C130.004 218 146.525 220.687 159 217C153.902 215.432 146.469 217 141 217L99 217z"/>
<path style="fill:#596ba3; stroke:none;" d="M56 217C58.376 224.74 62.8747 221.064 68.6713 223.857C71.1263 225.04 72.6781 227.579 75 229C71.7512 221.701 68.3964 223.795 62.091 221.401C59.7915 220.528 57.9206 218.477 56 217z"/>
<path style="fill:#677bc1; stroke:none;" d="M33 218C39.0435 225.679 42.3306 227 52 227C48.5676 225.56 44.7002 226 41 226C39.87 221.359 37.5122 219.37 33 218z"/>
<path style="fill:#323a4c; stroke:none;" d="M202 221C203.457 219.897 203.897 219.457 205 218C202.876 218.899 202.899 218.876 202 221z"/>
<path style="fill:#6171a8; stroke:none;" d="M169 219C164.67 226.89 155.831 225 148 225L91 225C96.7073 227.395 104.846 226 111 226L153 226C160.817 226 167.347 227.105 171 219L169 219z"/>
<path style="fill:#738bdd; stroke:none;" d="M74 220C74.6831 230.144 81.7916 225.586 87.8156 230.429C89.7365 231.973 91.0012 234.379 93.3248 235.397C99.234 237.984 109.601 236 116 236L163 236C157.61 233.134 150.94 234 145 234L111 234C104.707 234 95.3051 236.407 92 230L164 230L164 234C165.884 232.02 166.469 230.69 167 228L119 228C110.81 228 102.143 228.812 94.0039 227.891C89.0354 227.329 87.6282 223.445 83.6998 221.178C80.8683 219.544 77.1417 220.002 74 220z"/>
<path style="fill:#7790e7; stroke:none;" d="M171 221L171 227C176.349 226.985 180.505 227.203 181 221L171 221z"/>
<path style="fill:#6579bd; stroke:none;" d="M184 223C188.017 222.044 191.887 222 196 222C192.479 220.522 186.661 219.955 184 223z"/>
<path style="fill:#434f72; stroke:none;" d="M60 231C59.0895 227.73 59.6614 224.66 64.0054 225.492C68.0355 226.265 69.9431 230.098 73.2855 231.973C79.908 235.688 85.4765 232.106 89 241L141 241C148.376 241 157.814 242.575 164.957 240.682C168.553 239.729 169.791 235.95 173.104 234.603C175.952 233.446 179.112 234.252 181.896 232.682C184.698 231.102 186.078 227.825 189.104 226.603C194 224.625 197.011 226.283 200 221C196.106 222.522 190.686 223.021 187.209 225.027C184.362 226.67 183.133 229.973 179.957 231.258C177.131 232.401 173.913 231.558 171.174 233.013C168.053 234.671 166.343 238.044 162.91 239.297C156.904 241.489 148.329 240 142 240L110 240C105.016 240 98.882 240.958 94.0401 239.682C90.2343 238.679 89.0299 234.846 85.8156 233.028C82.8363 231.343 79.2811 232.688 76.2238 231.401C71.8358 229.555 70.3698 225.08 65 224.225C60.0028 223.429 54.0448 227.127 60 231z"/>
<path style="fill:#535c7d; stroke:none;" d="M92 223C98.1939 225.599 107.314 224 114 224L163 224C156.806 221.401 147.686 223 141 223L92 223z"/>
<path style="fill:#4e5c8a; stroke:none;" d="M167 237C168.887 235.443 170.703 233.466 173.041 232.599C175.566 231.662 178.397 232.31 180.896 231.258C183.669 230.09 184.858 227.286 187.209 225.6C189.789 223.749 192.987 224.011 196 224C187.901 220.602 185.944 226.5 179.896 229.821C174.394 232.842 169.565 229.701 167 237z"/>
<path style="fill:#5a6ba3; stroke:none;" d="M41 225C47.0823 227.552 51.6197 224.898 55 232C56.9242 223.432 46.4942 225 41 225z"/>
<path style="fill:#303746; stroke:none;" d="M67 238C73.7086 238.004 77.3853 239.352 83 243L81 237C85.1464 238.642 87.3585 240.854 89 245L84 245C87.6986 246.552 92.0172 246 96 246L119 246L118 244C134.002 243.313 149.934 243 166 243C160.049 240.503 151.42 242 145 242C128.769 242 112.198 242.976 96.0008 241.956C90.4169 241.604 89.8673 237.806 85.6605 235.317C82.2097 233.275 76.9029 233.725 73 233L74 236C68.5044 235.581 63.5114 231.856 61 227C63.73 227.117 66.3142 227.499 69 228C66.9043 226.036 57.1156 222.685 59.0062 228.965C60.1666 232.818 65.1076 234.443 67 238z"/>
<path style="fill:#303747; stroke:none;" d="M186 229C190.295 227.18 194.616 227.296 199 226C194.868 225.007 188.427 225.256 186 229z"/>
<path style="fill:#23272a; stroke:none;" d="M61 227C62.7423 232.591 68.3411 235.813 74 236C71.951 229.125 67.8966 227.148 61 227z"/>
<path style="fill:#4e5c8a; stroke:none;" d="M73 229C75.6942 232.736 79.721 232 84 232C80.5936 230.554 76.6015 230.124 73 229z"/>
<path style="fill:#6579bd; stroke:none;" d="M168 231C172.017 230.044 175.887 230 180 230C176.479 228.522 170.661 227.955 168 231z"/>
<path style="fill:#303747; stroke:none;" d="M185 229C180.737 234.091 173.161 232.125 170 237C174.387 235.141 186.431 235.891 185 229z"/>
<path style="fill:#5a6ba5; stroke:none;" d="M76 230C78.8861 231.223 82.2017 230.942 84.9066 232.742C87.5434 234.495 89.0042 237.778 92.1844 238.682C98.8803 240.586 108.053 239 115 239L163 239C157.293 236.605 149.154 238 143 238C127.849 238 112.09 239.261 97.0008 237.941C91.8533 237.491 90.1634 233.368 85.9606 231.179C82.9605 229.616 79.272 230.002 76 230z"/>
<path style="fill:#768fe5; stroke:none;" d="M92 230C93.9609 236.44 100.531 234.009 106 234L148 234C153.614 234 162.805 237.153 164 230L92 230z"/>
<path style="fill:#5b6da8; stroke:none;" d="M164 238C166.785 236.439 168.323 233.541 171.104 232.027C173.731 230.597 177.117 231.002 180 231C172.825 227.989 167.025 231.29 164 238z"/>
<path style="fill:#6a7fc8; stroke:none;" d="M54 231C54.8387 233.626 55.3735 234.161 58 235C56.6697 233.247 55.7525 232.33 54 231z"/>
<path style="fill:#6276b7; stroke:none;" d="M56 232C57.5362 234.29 58.3867 235.162 61 236C59.6274 233.453 58.7817 232.812 56 232z"/>
<path style="fill:#39425a; stroke:none;" d="M75 233C77.8897 234.213 80.8741 233.998 84 234C81.1103 232.787 78.1259 233.002 75 233z"/>
<path style="fill:#434f72; stroke:none;" d="M64 234L65 240L76 240C71.0861 237.932 68.0932 238.027 64 234z"/>
<path style="fill:#374057; stroke:none;" d="M65 234C65.6836 235.58 65.8048 235.777 67 237C66.3164 235.42 66.1952 235.223 65 234z"/>
<path style="fill:#6072b2; stroke:none;" d="M61 236C62.1036 238.357 62.9564 239.376 65 241C63.8964 238.643 63.0436 237.624 61 236z"/>
<path style="fill:#23272a; stroke:none;" d="M81 237L83 245L89 245C87.8814 240.396 85.6041 238.119 81 237z"/>
<path style="fill:#6377b9; stroke:none;" d="M92 237C98.4361 239.701 108.049 238 115 238L164 238C157.564 235.299 147.951 237 141 237L92 237z"/>
<path style="fill:#39435c; stroke:none;" d="M67 238C70.0492 239.283 73.464 238.87 76.4097 240.608C79.4657 242.411 81.4906 245.759 85.0394 246.682C95.4924 249.401 118.602 240.507 121 256C122.495 252.409 121.774 248.144 117.695 246.564C108.981 243.188 97.1966 247.315 88.0147 245.852C83.6118 245.15 81.7324 241.092 77.9853 239.179C74.6965 237.5 70.5757 238 67 238z"/>
<path style="fill:#505f8e; stroke:none;" d="M91 239C97.1939 241.599 106.314 240 113 240L146 240C152.658 240 159.487 240.551 166 239C159.641 237.044 149.836 239 143 239L91 239z"/>
<path style="fill:#4f5d8c; stroke:none;" d="M65 240C68.4324 241.44 72.2998 241 76 241C72.5676 239.56 68.7002 240 65 240z"/>
<path style="fill:#5a6ca5; stroke:none;" d="M65 241C68.4324 242.44 72.2998 242 76 242C72.5676 240.56 68.7002 241 65 241z"/>
<path style="fill:#445073; stroke:none;" d="M76 241C79.6163 248.455 85.6525 248 93 248L116 248C107.428 244.403 96.1217 248.283 87.0039 246.852C82.6408 246.167 80.1704 242.22 76 241z"/>
<path style="fill:#3b455f; stroke:none;" d="M91 241C97.6777 243.802 107.784 242 115 242L167 242C160.322 239.198 150.216 241 143 241L91 241z"/>
<path style="fill:#6376b8; stroke:none;" d="M78 245C81.0038 254.785 97.6182 250.986 106 251C110.907 251.008 115.33 250.713 117 256L119 256L119 251C111.089 249.531 103.019 250 95 250C91.602 250 87.3618 250.645 84.1289 249.412C81.819 248.531 80.0672 246.319 78 245z"/>
<path style="fill:#2f3544; stroke:none;" d="M119 247C121.065 250.057 121.882 252.302 122 256L124 256C123.946 251.461 123.702 248.428 119 247z"/>
<path style="fill:#596aa3; stroke:none;" d="M81 248C84.4856 250.641 88.7528 250 93 250L116 250C112.301 248.448 107.983 249 104 249C96.3016 249 88.5953 249.41 81 248z"/>
<path style="fill:#4f5d8c; stroke:none;" d="M83 248C87.2151 249.769 92.4645 249 97 249C104.769 249 111.495 249.236 119 251L119 256L121 256C120.79 253.228 120.512 250.595 117.852 249.028C114.86 247.265 110.325 248 107 248L83 248z"/>
<path style="fill:#6a80c9; stroke:none;" d="M82 251C85.6986 252.552 90.0172 252 94 252L115 252C111.301 250.448 106.983 251 103 251L82 251z"/>
<path style="fill:#778fe5; stroke:none;" d="M80 255C83.9586 256.661 88.7396 256 93 256L116 256C113.503 252.164 110.077 253.633 106 253.91C97.3588 254.498 88.4897 252.979 80 255z"/>
</svg>
